<svg width="21" height="22" fill="none" xmlns="http://www.w3.org/2000/svg"><path d="M10.505 5.61a5.377 5.377 0 00-5.386 5.385 5.377 5.377 0 005.386 5.386 5.377 5.377 0 005.386-5.386 5.377 5.377 0 00-5.386-5.385zm0 8.887a3.508 3.508 0 01-3.502-3.502 3.505 3.505 0 013.502-3.501 3.505 3.505 0 013.501 3.502 3.508 3.508 0 01-3.501 3.501zm6.862-9.108c0 .699-.562 1.256-1.256 1.256a1.256 1.256 0 111.256-1.256zm3.567 1.275c-.08-1.683-.464-3.173-1.697-4.401C18.01 1.035 16.52.65 14.837.566 13.103.467 7.904.467 6.17.566 4.49.646 3 1.03 1.767 2.258S.155 4.977.07 6.66c-.098 1.734-.098 6.932 0 8.667.08 1.682.464 3.173 1.697 4.401C3 20.956 4.486 21.341 6.17 21.425c1.734.099 6.933.099 8.667 0 1.683-.08 3.173-.464 4.402-1.697 1.228-1.228 1.612-2.719 1.696-4.401.099-1.735.099-6.928 0-8.663zm-2.24 10.524a3.545 3.545 0 01-1.997 1.997c-1.383.548-4.664.421-6.192.421-1.528 0-4.814.122-6.193-.422a3.545 3.545 0 01-1.996-1.996c-.549-1.383-.422-4.664-.422-6.192 0-1.529-.122-4.815.422-6.193a3.545 3.545 0 011.997-1.997c1.382-.548 4.664-.421 6.192-.421 1.528 0 4.814-.122 6.192.421a3.545 3.545 0 011.997 1.997c.548 1.383.422 4.664.422 6.192 0 1.529.126 4.815-.422 6.193z" fill="#fff"/></svg>