<svg width="76" height="76" viewBox="0 0 76 76" fill="none" xmlns="http://www.w3.org/2000/svg">
<path d="M72.5 0.5H3.5C1.84062 0.5 0.5 1.84062 0.5 3.5V72.5C0.5 74.1594 1.84062 75.5 3.5 75.5H72.5C74.1594 75.5 75.5 74.1594 75.5 72.5V3.5C75.5 1.84062 74.1594 0.5 72.5 0.5ZM63.8375 22.3906H57.8469C53.15 22.3906 52.2406 24.6219 52.2406 27.9031V35.1312H63.4531L61.9906 46.4469H52.2406V75.5H40.55V46.4563H30.7719V35.1312H40.55V26.7875C40.55 17.1031 46.4656 11.825 55.1094 11.825C59.2531 11.825 62.8063 12.1344 63.8469 12.275V22.3906H63.8375Z" fill="black"/>
</svg>
