<svg width="76" height="76" viewBox="0 0 76 76" fill="none" xmlns="http://www.w3.org/2000/svg">
<path d="M37.9999 25.5032C31.1187 25.5032 25.5031 31.1188 25.5031 38.0001C25.5031 44.8813 31.1187 50.4969 37.9999 50.4969C44.8812 50.4969 50.4968 44.8813 50.4968 38.0001C50.4968 31.1188 44.8812 25.5032 37.9999 25.5032ZM75.4812 38.0001C75.4812 32.8251 75.5281 27.6969 75.2374 22.5313C74.9468 16.5313 73.5781 11.2063 69.1906 6.8188C64.7937 2.42193 59.4781 1.06255 53.4781 0.771929C48.3031 0.481304 43.1749 0.528179 38.0093 0.528179C32.8343 0.528179 27.7062 0.481304 22.5406 0.771929C16.5406 1.06255 11.2156 2.4313 6.82808 6.8188C2.43121 11.2157 1.07183 16.5313 0.781206 22.5313C0.490581 27.7063 0.537457 32.8344 0.537457 38.0001C0.537457 43.1657 0.490581 48.3032 0.781206 53.4688C1.07183 59.4688 2.44058 64.7938 6.82808 69.1813C11.225 73.5782 16.5406 74.9376 22.5406 75.2282C27.7156 75.5188 32.8437 75.4719 38.0093 75.4719C43.1843 75.4719 48.3124 75.5188 53.4781 75.2282C59.4781 74.9376 64.8031 73.5688 69.1906 69.1813C73.5874 64.7844 74.9468 59.4688 75.2374 53.4688C75.5374 48.3032 75.4812 43.1751 75.4812 38.0001ZM37.9999 57.2282C27.3593 57.2282 18.7718 48.6407 18.7718 38.0001C18.7718 27.3594 27.3593 18.7719 37.9999 18.7719C48.6406 18.7719 57.2281 27.3594 57.2281 38.0001C57.2281 48.6407 48.6406 57.2282 37.9999 57.2282ZM58.0156 22.4751C55.5312 22.4751 53.5249 20.4688 53.5249 17.9844C53.5249 15.5001 55.5312 13.4938 58.0156 13.4938C60.4999 13.4938 62.5062 15.5001 62.5062 17.9844C62.5069 18.5744 62.3913 19.1586 62.1659 19.7038C61.9405 20.249 61.6097 20.7443 61.1926 21.1614C60.7754 21.5786 60.2801 21.9093 59.7349 22.1347C59.1898 22.3601 58.6055 22.4758 58.0156 22.4751Z" fill="#E1306C"/>
</svg>
