<svg width="75" height="75" viewBox="0 0 75 75" fill="none" xmlns="http://www.w3.org/2000/svg">
<path d="M75 37.5C75 47.4456 71.0491 56.9839 64.0165 64.0165C56.9839 71.0491 47.4456 75 37.5 75C27.5544 75 18.0161 71.0491 10.9835 64.0165C3.95088 56.9839 0 47.4456 0 37.5C0 27.5544 3.95088 18.0161 10.9835 10.9835C18.0161 3.95088 27.5544 0 37.5 0C47.4456 0 56.9839 3.95088 64.0165 10.9835C71.0491 18.0161 75 27.5544 75 37.5ZM38.8453 27.6844C35.1984 29.2031 27.9047 32.3438 16.9734 37.1063C15.2016 37.8094 14.2688 38.5031 14.1844 39.1781C14.0437 40.3172 15.4734 40.7672 17.4188 41.3812L18.2391 41.6391C20.1516 42.2625 22.7297 42.9891 24.0656 43.0172C25.2844 43.0453 26.6391 42.5484 28.1344 41.5172C38.3484 34.6219 43.6219 31.1391 43.95 31.0641C44.1844 31.0078 44.5125 30.9422 44.7281 31.1391C44.9484 31.3313 44.925 31.7016 44.9016 31.8C44.7609 32.4047 39.15 37.6172 36.2484 40.3172C35.3438 41.1609 34.7016 41.7563 34.5703 41.8922C34.2813 42.1876 33.9875 42.4782 33.6891 42.7641C31.9078 44.4797 30.5766 45.7641 33.7594 47.8641C35.2922 48.8766 36.5203 49.7062 37.7438 50.5406C39.075 51.45 40.4062 52.3547 42.1312 53.4891C42.5672 53.7703 42.9891 54.075 43.3969 54.3656C44.9484 55.4719 46.35 56.4656 48.0703 56.3063C49.0734 56.2125 50.1094 55.275 50.6344 52.4625C51.8766 45.8203 54.3188 31.4344 54.8813 25.5047C54.9156 25.0118 54.8951 24.5165 54.8203 24.0281C54.7762 23.634 54.5854 23.2709 54.2859 23.0109C53.8594 22.7165 53.351 22.564 52.8328 22.575C51.4266 22.5984 49.2562 23.3531 38.8453 27.6844Z" fill="#0088cc"/>
</svg>
