<svg width="75" height="75" viewBox="0 0 75 75" fill="none" xmlns="http://www.w3.org/2000/svg">
<path d="M0 0V75H75V0H0ZM33.2931 20.0546C35.4167 20.0326 37.4937 20.2681 38.5071 20.2973C42.2633 20.4054 42.9267 22.3052 42.8786 23.8678C42.8084 26.1564 41.3359 35.8372 44.0643 36.7813C48.0399 34.6554 50.7059 28.0526 52.6473 23.8678C53.6294 21.7511 53.4741 21.6459 55.7372 21.6431L64.7277 21.6293C66.8927 21.6266 66.8083 21.5507 67.5018 22.435C69.1149 24.4917 62.4114 33.0471 60.2462 35.4126C56.2506 39.7781 58.5818 41.4686 59.2254 42.0685C62.2072 44.8487 65.0885 47.7317 66.8792 50.3906C68.3029 52.5045 67.7149 54.4726 65.9041 54.5471L56.2636 54.9454C53.0645 55.0769 48.0901 49.3421 47.2961 48.0926C46.654 47.062 43.5593 45.7703 43.2678 48.4038L42.8603 52.0796C42.5644 54.7072 40.6244 54.6459 39.093 54.7117C28.4887 55.168 24.8774 51.1306 19.5373 45.1719C15.6234 39.6369 11.8885 34.0701 8.79356 27.4015C7.86719 25.4054 7.3765 23.9411 7.25087 22.389C8.80812 21.1719 14.2742 21.6961 17.9443 21.6154C18.9481 21.5933 19.6254 22.1684 20.1553 23.3137C22.2228 27.7833 24.4777 32.1724 27.4612 36.0532C28.7605 37.25 29.9091 37.6901 30.4824 35.2568C30.8153 35.2262 30.7886 31.1966 30.8074 28.1568C30.8204 26.0697 30.5752 23.5667 27.0401 22.4119C27.7551 20.5376 30.5629 20.0829 33.2931 20.0546Z" fill="black"/>
</svg>
