<svg width="263" height="52" viewBox="0 0 263 52" fill="none" xmlns="http://www.w3.org/2000/svg">
<path d="M54.12 41V13.778H64.455C67.107 13.778 69.135 14.532 70.539 16.04C71.943 17.548 72.645 19.602 72.645 22.202C72.645 24.802 71.943 26.856 70.539 28.364C69.135 29.872 67.107 30.626 64.455 30.626H59.229V41H54.12ZM59.229 26.453H63.402C64.78 26.453 65.768 26.18 66.366 25.634C66.964 25.062 67.263 24.165 67.263 22.943V21.461C67.263 20.239 66.964 19.355 66.366 18.809C65.768 18.237 64.78 17.951 63.402 17.951H59.229V26.453ZM83.8931 41.468C82.3591 41.468 80.9811 41.221 79.7591 40.727C78.5631 40.233 77.5361 39.531 76.6781 38.621C75.8461 37.711 75.1961 36.606 74.7281 35.306C74.2861 34.006 74.0651 32.55 74.0651 30.938C74.0651 29.326 74.2861 27.87 74.7281 26.57C75.1961 25.27 75.8461 24.165 76.6781 23.255C77.5361 22.345 78.5631 21.643 79.7591 21.149C80.9811 20.655 82.3591 20.408 83.8931 20.408C85.4011 20.408 86.7661 20.655 87.9881 21.149C89.2101 21.643 90.2371 22.345 91.0691 23.255C91.9271 24.165 92.5771 25.27 93.0191 26.57C93.4871 27.87 93.7211 29.326 93.7211 30.938C93.7211 32.55 93.4871 34.006 93.0191 35.306C92.5771 36.606 91.9271 37.711 91.0691 38.621C90.2371 39.531 89.2101 40.233 87.9881 40.727C86.7661 41.221 85.4011 41.468 83.8931 41.468ZM83.8931 37.646C85.3231 37.646 86.4541 37.217 87.2861 36.359C88.1181 35.475 88.5341 34.188 88.5341 32.498V29.378C88.5341 27.688 88.1181 26.414 87.2861 25.556C86.4541 24.672 85.3231 24.23 83.8931 24.23C82.4631 24.23 81.3321 24.672 80.5001 25.556C79.6681 26.414 79.2521 27.688 79.2521 29.378V32.498C79.2521 34.188 79.6681 35.475 80.5001 36.359C81.3321 37.217 82.4631 37.646 83.8931 37.646ZM96.1942 37.061H102.59V16.079H96.1942V12.14H107.582V37.061H114.017V41H96.1942V37.061ZM131.778 20.876H136.848L127.215 44.588C126.669 45.966 125.941 47.006 125.031 47.708C124.121 48.436 122.834 48.8 121.17 48.8H117.504V44.861H122.301L123.822 40.805L115.71 20.876H121.014L124.095 29.3L126.24 35.696H126.513L128.658 29.3L131.778 20.876ZM138.463 20.876H143.455V24.425H143.728C144.274 23.203 145.015 22.228 145.951 21.5C146.913 20.772 148.174 20.408 149.734 20.408C150.878 20.408 151.918 20.629 152.854 21.071C153.816 21.487 154.635 22.137 155.311 23.021C155.987 23.879 156.507 24.971 156.871 26.297C157.235 27.623 157.417 29.17 157.417 30.938C157.417 32.706 157.235 34.253 156.871 35.579C156.507 36.905 155.987 38.01 155.311 38.894C154.635 39.752 153.816 40.402 152.854 40.844C151.918 41.26 150.878 41.468 149.734 41.468C148.174 41.468 146.913 41.104 145.951 40.376C145.015 39.648 144.274 38.673 143.728 37.451H143.455V48.8H138.463V20.876ZM147.628 37.49C149.084 37.49 150.202 37.048 150.982 36.164C151.788 35.28 152.191 34.071 152.191 32.537V29.339C152.191 27.805 151.788 26.596 150.982 25.712C150.202 24.828 149.084 24.386 147.628 24.386C146.484 24.386 145.496 24.672 144.664 25.244C143.858 25.79 143.455 26.635 143.455 27.779V34.097C143.455 35.241 143.858 36.099 144.664 36.671C145.496 37.217 146.484 37.49 147.628 37.49ZM159.89 12.14H164.882V24.425H165.077C165.519 23.333 166.195 22.397 167.105 21.617C168.041 20.811 169.328 20.408 170.966 20.408C172.942 20.408 174.541 21.071 175.763 22.397C177.011 23.697 177.635 25.569 177.635 28.013V41H172.643V28.715C172.643 25.803 171.382 24.347 168.86 24.347C168.34 24.347 167.846 24.412 167.378 24.542C166.91 24.672 166.481 24.88 166.091 25.166C165.727 25.426 165.428 25.751 165.194 26.141C164.986 26.531 164.882 26.999 164.882 27.545V41H159.89V12.14ZM189.859 41.468C188.325 41.468 186.947 41.221 185.725 40.727C184.529 40.233 183.502 39.531 182.644 38.621C181.812 37.711 181.162 36.606 180.694 35.306C180.252 34.006 180.031 32.55 180.031 30.938C180.031 29.326 180.252 27.87 180.694 26.57C181.162 25.27 181.812 24.165 182.644 23.255C183.502 22.345 184.529 21.643 185.725 21.149C186.947 20.655 188.325 20.408 189.859 20.408C191.367 20.408 192.732 20.655 193.954 21.149C195.176 21.643 196.203 22.345 197.035 23.255C197.893 24.165 198.543 25.27 198.985 26.57C199.453 27.87 199.687 29.326 199.687 30.938C199.687 32.55 199.453 34.006 198.985 35.306C198.543 36.606 197.893 37.711 197.035 38.621C196.203 39.531 195.176 40.233 193.954 40.727C192.732 41.221 191.367 41.468 189.859 41.468ZM189.859 37.646C191.289 37.646 192.42 37.217 193.252 36.359C194.084 35.475 194.5 34.188 194.5 32.498V29.378C194.5 27.688 194.084 26.414 193.252 25.556C192.42 24.672 191.289 24.23 189.859 24.23C188.429 24.23 187.298 24.672 186.466 25.556C185.634 26.414 185.218 27.688 185.218 29.378V32.498C185.218 34.188 185.634 35.475 186.466 36.359C187.298 37.217 188.429 37.646 189.859 37.646ZM202.277 41V20.876H207.269V24.425H207.464C207.906 23.333 208.582 22.397 209.492 21.617C210.428 20.811 211.715 20.408 213.353 20.408C215.329 20.408 216.928 21.071 218.15 22.397C219.398 23.697 220.022 25.569 220.022 28.013V41H215.03V28.715C215.03 25.803 213.769 24.347 211.247 24.347C210.727 24.347 210.233 24.412 209.765 24.542C209.297 24.672 208.868 24.88 208.478 25.166C208.114 25.426 207.815 25.751 207.581 26.141C207.373 26.531 207.269 26.999 207.269 27.545V41H202.277ZM233.493 17.756C232.323 17.756 231.491 17.509 230.997 17.015C230.529 16.521 230.295 15.923 230.295 15.221V14.285C230.295 13.583 230.529 12.985 230.997 12.491C231.491 11.997 232.323 11.75 233.493 11.75C234.663 11.75 235.482 11.997 235.95 12.491C236.444 12.985 236.691 13.583 236.691 14.285V15.221C236.691 15.923 236.444 16.521 235.95 17.015C235.482 17.509 234.663 17.756 233.493 17.756ZM224.367 37.061H230.997V24.815H224.367V20.876H235.989V37.061H242.151V41H224.367V37.061ZM253.906 41.468C252.294 41.468 250.864 41.221 249.616 40.727C248.368 40.233 247.315 39.531 246.457 38.621C245.625 37.711 244.988 36.619 244.546 35.345C244.104 34.045 243.883 32.589 243.883 30.977C243.883 29.339 244.104 27.87 244.546 26.57C245.014 25.27 245.664 24.165 246.496 23.255C247.328 22.345 248.329 21.643 249.499 21.149C250.695 20.655 252.034 20.408 253.516 20.408C254.972 20.408 256.285 20.655 257.455 21.149C258.625 21.617 259.613 22.293 260.419 23.177C261.251 24.061 261.888 25.127 262.33 26.375C262.772 27.623 262.993 29.001 262.993 30.509V32.147H248.875V32.654C248.875 34.11 249.33 35.293 250.24 36.203C251.15 37.087 252.424 37.529 254.062 37.529C255.31 37.529 256.376 37.282 257.26 36.788C258.17 36.268 258.924 35.592 259.522 34.76L262.369 37.607C261.641 38.673 260.575 39.583 259.171 40.337C257.793 41.091 256.038 41.468 253.906 41.468ZM253.555 24.074C252.151 24.074 251.02 24.516 250.162 25.4C249.304 26.284 248.875 27.454 248.875 28.91V29.183H258.001V28.832C258.001 27.376 257.598 26.219 256.792 25.361C256.012 24.503 254.933 24.074 253.555 24.074Z" fill="white"/>
<rect width="12.6286" height="26" rx="6.31429" fill="white"/>
<rect x="12.6289" width="12.6286" height="13.3714" rx="6.31429" fill="white"/>
<rect y="26" width="12.6286" height="26" rx="6.31429" fill="white"/>
<rect x="12.6289" y="13.3714" width="12.6286" height="12.6286" rx="6.31429" fill="white"/>
</svg>
