<svg width="118" height="122" viewBox="0 0 118 122" fill="none" xmlns="http://www.w3.org/2000/svg">
<path d="M113.498 54.0849L110.978 45.7217L103.771 32.1211L95.5279 23.431L86.7763 17.1822L79.1775 14.1993L70.0598 10.9557L55.0474 10L45.5814 11.7087L37.8574 14.0834L24.1518 22.1054L15.5858 31.6623L7.68767 44.4918L4.58074 55.4098L4 71.9751L6.96178 83.2697L13.4951 96.1281L18.103 102.339L24.4748 108.181L32.4325 113.565L42.245 117.833L58.667 119.761L67.2416 120L79.9326 116.425L91.2758 110.199L98.5739 103.972L104.233 97.2198L112.234 81.5567L114 70.8421L113.498 54.0849Z" fill="#061A58"/>
<path d="M55.7432 18L49 24.6006L60 29L55.7432 18Z" fill="#133691"/>
<path d="M59.1063 29L55 18L67 18.9885L59.1063 29Z" fill="#1943AE"/>
<path d="M60 29L81 28.3632L68.0689 19L60 29Z" fill="#2053CF"/>
<path d="M81 28L68 18.0747L79.4317 18L81 28Z" fill="#2660EB"/>
<path d="M80.6157 28L93 27.1728L79 18L80.6157 28Z" fill="#306DFF"/>
<path d="M93 27L79 18.6865L85.9596 18L93 27Z" fill="#235ADB"/>
<path d="M93.225 27L86 18L96 23.411L93.225 27Z" fill="#2660EB"/>
<path d="M102 33L93 26.9438L95.6103 23L102 33Z" fill="#2053CF"/>
<path d="M92.463 27L91 33.6118L99 37L92.463 27Z" fill="#1C4ABD"/>
<path d="M93 27L102 32.9102L99.726 37L93 27Z" fill="#1A46B4"/>
<path d="M81 27.7296L93 27L91.4889 33L81 27.7296Z" fill="#2660EB"/>
<path d="M81 28L92 33.8327L83.8542 43L81 28Z" fill="#235ADB"/>
<path d="M80.3236 28L71 36.8428L83 43L80.3236 28Z" fill="#1F51CA"/>
<path d="M60 28.6706L81 28L71.5523 37L60 28.6706Z" fill="#1F50C9"/>
<path d="M84 42.7942L92.0515 34L98 45L84 42.7942Z" fill="#2053CF"/>
<path d="M91 34L96.5561 45L99 37.2641L91 34Z" fill="#1B48B9"/>
<path d="M97 44.6626L99.6613 37L106 51L97 44.6626Z" fill="#173FA5"/>
<path d="M100 37L109 43.5701L105.905 51L100 37Z" fill="#12348D"/>
<path d="M100 37.0992L109 44L102.242 33L100 37.0992Z" fill="#143895"/>
<path d="M102 32.919L103.799 32L109 44L102 32.919Z" fill="#0F2F82"/>
<path d="M109.002 44.0148L111 46L104 32L109.002 44.0148Z" fill="#05154C"/>
<path d="M102.271 33L104 32.0673L96 23L102.271 33Z" fill="#163C9E"/>
<path d="M113.449 61L111 46L114 54.4208L113.409 61H113.449Z" fill="#051753"/>
<path d="M109 44L113 61L111 45.9485L109 44Z" fill="#061A57"/>
<path d="M106 51.7257L113 61L109.049 44L106 51.7257Z" fill="#05154C"/>
<path d="M113 60.6289L113.498 54L114 71L113.034 60.6289H113Z" fill="#081F63"/>
<path d="M112 74L114 71.0353L113.117 61L112 74Z" fill="#12348D"/>
<path d="M111.99 82.1254L110 83L114 71L111.99 82.1254Z" fill="#123392"/>
<path d="M110 83L114 71L111.512 74.1359L110 83Z" fill="#0C2674"/>
<path d="M111.695 74L113 61L109 65.3363L111.695 74Z" fill="#081F63"/>
<path d="M110.712 82.4396L112 74L105 86L110.712 82.4396Z" fill="#0F2F82"/>
<path d="M106 51L113 60.4517L109.404 65L106 51Z" fill="#061A57"/>
<path d="M111 73.9304L108.609 65L105 76L111 73.9304Z" fill="#081E5F"/>
<path d="M105 86L112 74L105.864 76.0221L105 86Z" fill="#092167"/>
<path d="M104 98L112 82L110.252 82.8604L104 98Z" fill="#163AA2"/>
<path d="M104 97L110 82L104.386 92.935L104 97Z" fill="#163AA2"/>
<path d="M105.045 93L111 82L105 85.6666L105.045 93Z" fill="#0E2B7E"/>
<path d="M99 104L105 93L104.601 97.1027L99 104Z" fill="#123392"/>
<path d="M91 107.419L99 104L91.4299 110L91 107.419Z" fill="#1A45B2"/>
<path d="M98.8388 103.531L105 93L91 107L98.8388 103.531Z" fill="#123392"/>
<path d="M90.6134 108L91 110.869L85 113L90.6134 108Z" fill="#133493"/>
<path d="M80 116L84.7618 111.917L91 110L80 116Z" fill="#1A45B2"/>
<path d="M80.077 116.271L85 112L69 118L80.077 116.271Z" fill="#1A45B2"/>
<path d="M67 120L80 116L68.6821 117.92L67 120Z" fill="#1A45B2"/>
<path d="M59 119.743L67.3927 120L69 118L59 119.743Z" fill="#1A45B2"/>
<path d="M41.9173 117.31L41 116L58 119L41.9173 117.31Z" fill="#1F51CA"/>
<path d="M42 118L41.0454 116.6L32 114L42 118Z" fill="#173FAD"/>
<path d="M24.2253 107.725L18 102L32 113L24.2253 107.725Z" fill="#173FAD"/>
<path d="M18 102L13 96L16.3209 96.9734L18 102Z" fill="#1B47B5"/>
<path d="M18 102L32 113L27.4199 107.143L18 102Z" fill="#163AA3"/>
<path d="M18.5213 101.978L28 107L17 97L18.5213 101.978Z" fill="#173FAD"/>
<path d="M28 108L42 117L32.8386 114.146L28 108Z" fill="#133595"/>
<path d="M28 108L41.7717 117L42 111.708L28 108Z" fill="#163BA4"/>
<path d="M48 114.248L41 116L41.2134 111L48 114.248Z" fill="#163AA2"/>
<path d="M16 97L13.004 96.0096L11 87L16 97Z" fill="#2053CF"/>
<path d="M14 96L7 83L11.8067 86.7332L14 96Z" fill="#306DFF"/>
<path d="M5 69L12 87L7.26697 83.2097" fill="#1F51CA"/>
<path d="M7 83L4 71.5774L4.82348 69L7 83Z" fill="#2257D7"/>
<path d="M5 69.3847L4 72L4.71433 55L5 69.3847Z" fill="#11318D"/>
<path d="M8.02255 44.7742L10 44L5 56L8.02255 44.7742Z" fill="#0C2674"/>
<path d="M5 56L8.78533 55.2556L10 44L5 56Z" fill="#102F88"/>
<path d="M5.23875 70L5 55.7367L9 55L5.23875 70Z" fill="#133595"/>
<path d="M9 55L8.71422 67.1709L5 70L9 55Z" fill="#12328E"/>
<path d="M16 32L10.0589 44.2371L8 45L16 32Z" fill="#0B2572"/>
<path d="M16 32L23.8712 24.5152L25 22L16 32Z" fill="#020B2E"/>
<path d="M24.0756 22.538L33 18L23 25L24.0756 22.538Z" fill="#092064"/>
<path d="M24 22L38 14L33.106 17.5813L24 22Z" fill="#030F41"/>
<path d="M33 18L46 12L37.9767 14.3883L33 18Z" fill="#081E5F"/>
<path d="M46 12L40.9176 17.3009L33 18L46 12Z" fill="#081F61"/>
<path d="M41 17L53 12.5769L46.0361 12L41 17Z" fill="#0D2A78"/>
<path d="M55 10L46 11.475L52.4326 12L55 10Z" fill="#11338B"/>
<path d="M64 11.9L52 12L54.7806 10" fill="#153A99"/>
<path d="M55 10L70 10.8685L63.9458 12L55 10Z" fill="#0D2A78"/>
<path d="M64 12.1518L69.9885 11L79 14L64 12.1518Z" fill="#2053CE"/>
<path d="M86.1987 18L79 14L87 17.3772L86.1987 18Z" fill="#1E4DC3"/>
<path d="M86 17.5282L86.8001 17L96 23L86 17.5282Z" fill="#1E4FC7"/>
<path d="M41 116.726L58 120L48.221 115L41 116.726Z" fill="#1A45B2"/>
<path d="M59 120L49 114.809L58.7863 113L59 120Z" fill="#163AA2"/>
<path d="M68 118.39L58.2046 120L58 113L68 118.39Z" fill="#1A45B2"/>
<path d="M68.1587 118L58 112.743L72 109L68.1587 118Z" fill="#1741AA"/>
<path d="M85 112.231L69 118L72.9539 109" fill="#1A45B2"/>
<path d="M85.2559 112L86 103L73 108.77L85.2559 112Z" fill="#133493"/>
<path d="M85 112L85.7273 103L91 107.479L85 112Z" fill="#163AA2"/>
<path d="M91.3806 107L86 102.417L99 94L91.3806 107Z" fill="#133493"/>
<path d="M91 107L98.6121 94.1737L105 93L91 107Z" fill="#1A45B2"/>
<path d="M104 92.8574L103.958 86L98 94L104 92.8574Z" fill="#092167"/>
<path d="M79 14L79.0446 18L86 17.3205" fill="#2258D9"/>
<path d="M79 18L78.9571 13.9171L64 12L79 18Z" fill="#2257D7"/>
<path d="M64 12L67.6697 18L79 17.9324L64 12Z" fill="#2257D7"/>
<path d="M63.397 12L67 18L55 17.0524L63.397 12Z" fill="#1A46B3"/>
<path d="M52 12.1087L55.0637 17L64 12L52 12.1087Z" fill="#163C9F"/>
<path d="M41 16.474L52.9503 12L56 17L41 16.474Z" fill="#103186"/>
<path d="M49.109 24L41 17L56 17.5315L49.109 24Z" fill="#163C9E"/>
<path d="M33 18L23 24.6056L27.7384 29L33 18Z" fill="#031043"/>
<path d="M41 17L28 29L33.3055 17.6907L41 17Z" fill="#030F41"/>
<path d="M28 28.6781L36.2952 30L41 17L28 28.6781Z" fill="#05164E"/>
<path d="M36 30L40.8194 17L49 23.9808L36 30Z" fill="#092064"/>
<path d="M16 32.1464L16.468 37L23 25L16 32.1464Z" fill="#030F41"/>
<path d="M10 44L15.528 32L16 36.8273L10 44Z" fill="#091F64"/>
<path d="M16 37L23.1554 25L28 29.5425L16 37Z" fill="#041345"/>
<path d="M15.6009 47L16 37L10 43.9317L15.6009 47Z" fill="#0A226B"/>
<path d="M16 47L16.4388 37L25 43.4411L16 47Z" fill="#091F64"/>
<path d="M24.456 43L28 29L16 36.3739L24.456 43Z" fill="#061853"/>
<path d="M24 43L27.5574 29L36 30.3504L24 43Z" fill="#030F42"/>
<path d="M8 55L9.21533 44L15 47.2107L8 55Z" fill="#0B2572"/>
<path d="M12 87L8.58423 67L5 69.737L12 87Z" fill="#173DA9"/>
<path d="M15.6657 97L11 87L16 87.7543L15.6657 97Z" fill="#1A45B2"/>
<path d="M11 87.2282L16 88L12.4987 79L11 87.2282Z" fill="#1741AA"/>
<path d="M11.3185 87L8 67L13 78.9458L11.3185 87Z" fill="#10308B"/>
<path d="M17 97.8421L23 99L17.3817 88L17 97.8421Z" fill="#123390"/>
<path d="M17 97L28 107L22.6553 98.0587L17 97Z" fill="#133493"/>
<path d="M27.1586 107L31 103.251L22 98L27.1586 107Z" fill="#1A45B2"/>
<path d="M28 107.634L42 111L32.1105 104L28 107.634Z" fill="#163AA2"/>
<path d="M42 111L49.1822 114L59 112.366L42 111Z" fill="#1A45B2"/>
<path d="M42 110.519L46.696 101L59 112L42 110.519Z" fill="#123392"/>
<path d="M8 67L16 66.9886L8.26189 55L8 67Z" fill="#102F87"/>
<path d="M8 54.8694L16 67L15.4486 47L8 54.8694Z" fill="#081F63"/>
<path d="M8 67.0113L12.8873 79L16 67L8 67.0113Z" fill="#163BA4"/>
<path d="M13 79L16.1208 67L20 76.4821L13 79Z" fill="#11318C"/>
<path d="M16.8499 87L20 76L13 78.4382L16.8499 87Z" fill="#123390"/>
<path d="M17 87.6779L32 97L20.1765 76L17 87.6779Z" fill="#123392"/>
<path d="M22.4559 99L32 97.6034L17 88L22.4559 99Z" fill="#163AA2"/>
<path d="M31 104L30.9408 97L22 98.3765L31 104Z" fill="#1741AA"/>
<path d="M32.0603 104L32 97L46 101.642L32.0603 104Z" fill="#123392"/>
<path d="M32 103.337L41.4603 111L46 101L32 103.337Z" fill="#123392"/>
<path d="M57.8142 112L59 101.149L46 101L57.8142 112Z" fill="#0E2B80"/>
<path d="M58 113L59.1972 102L72 109.191L58 113Z" fill="#143698"/>
<path d="M73 109L72.4942 96L60 101.44L73 109Z" fill="#0D2878"/>
<path d="M72.5015 109L72 96L85 102.823L72.5015 109Z" fill="#123392"/>
<path d="M72 96.4236L80.0434 89L85 103L72 96.4236Z" fill="#081F63"/>
<path d="M85.94 103L92 84L81 88.8271L85.94 103Z" fill="#061A57"/>
<path d="M99 94.4081L86 103L92.3078 84L99 94.4081Z" fill="#0F2F82"/>
<path d="M98.6709 94L105 85.8315L92 84L98.6709 94Z" fill="#092167"/>
<path d="M105.09 86L92 84.1332L106 76L105.09 86Z" fill="#05164F"/>
<path d="M109 65.269L100 59L105.159 76L109 65.269Z" fill="#051753"/>
<path d="M109 65L105.425 51L100 58.4608L109 65Z" fill="#031043"/>
<path d="M92 84L106 75.8639L92.431 70L92 84Z" fill="#031043"/>
<path d="M91 84.3192L79 72L80.1311 89L91 84.3192Z" fill="#030F41"/>
<path d="M72.6788 96L63 88L81 88.9655L72.6788 96Z" fill="#092167"/>
<path d="M73 96.6363L60 102L63.1829 88L73 96.6363Z" fill="#0F2F82"/>
<path d="M46.2458 101.845L60 102L43 91L46.2458 101.845Z" fill="#123390"/>
<path d="M46 102L42.9245 91L32 97.3898L46 102Z" fill="#0F2D84"/>
<path d="M32 97L34.0575 86L43 90.7082L32 97Z" fill="#0E2B7E"/>
<path d="M34 85.9215L20 76L31.8543 97L34 85.9215Z" fill="#0F2E86"/>
<path d="M59.8675 102L63 88L43 90.8636L59.8675 102Z" fill="#081F63"/>
<path d="M16.4738 67L20 54.1608L16 47L16.4738 67Z" fill="#0A236C"/>
<path d="M16 46.7888L20.6574 54L25 43L16 46.7888Z" fill="#081F63"/>
<path d="M24 43L41 37.8542L35.4204 30L24 43Z" fill="#05164E"/>
<path d="M24 43.1326L41 38L32.0205 57L24 43.1326Z" fill="#030F41"/>
<path d="M91.5729 84L79 71.5543L92 70L91.5729 84Z" fill="#05164F"/>
<path d="M105 76L99.9972 59L92 70.1599L105 76Z" fill="#030F42"/>
<path d="M80 89L66 75.5186L78.846 72L80 89Z" fill="#030F41"/>
<path d="M63 87.9612L81 89L66.5834 75L63 87.9612Z" fill="#05164F"/>
<path d="M62.5347 88L53 79.9127L66 75L62.5347 88Z" fill="#031042"/>
<path d="M100.372 59L106 51.632L97 45L100.372 59Z" fill="#0F2E82"/>
<path d="M24.0575 43L32 57L20 54.0001L24.0575 43Z" fill="#061853"/>
<path d="M20 54L32 56.9095L23.8848 70L20 54Z" fill="#081F63"/>
<path d="M41.9008 38L49 24L36 30.242L41.9008 38Z" fill="#081E5F"/>
<path d="M24 70L19.9749 54L16 66.54" fill="#091F64"/>
<path d="M16 67L24 70.636L19.8745 77L16 67Z" fill="#11318C"/>
<path d="M24.1759 70L34 86L20 76.1555L24.1759 70Z" fill="#0E2B7E"/>
<path d="M33.7032 86L35 67L24 70.2958L33.7032 86Z" fill="#092167"/>
<path d="M34 86L53 80.0185L35.2785 67L34 86Z" fill="#061A57"/>
<path d="M53 80L51.1194 65L35 66.7066L53 80Z" fill="#05164F"/>
<path d="M66 75.1439L52.8572 80L51 65L66 75.1439Z" fill="#041245"/>
<path d="M51 65.0313L64.4421 60L66 75L51 65.0313Z" fill="#030F42"/>
<path d="M43 91L63 88.1246L53.1581 80L43 91Z" fill="#092167"/>
<path d="M43.0812 91L34 86.2075L53 80L43.0812 91Z" fill="#0C2674"/>
<path d="M42 37.772L54 39L49 24L42 37.772Z" fill="#0C2771"/>
<path d="M60 28.386L49 24L53.9187 39L60 28.386Z" fill="#153A99"/>
<path d="M60.1507 29L72 37.1819L54 40L60.1507 29Z" fill="#163DA0"/>
<path d="M54 39L71 48.3957L64.9733 60L54 39Z" fill="#11338B"/>
<path d="M71.6563 49L72 37L54 39.7596L71.6563 49Z" fill="#163CA0"/>
<path d="M71 49L71.3487 37L84 43.0278L71 49Z" fill="#1A45B2"/>
<path d="M53.5973 39L65 60L45 49.9526L53.5973 39Z" fill="#0C266E"/>
<path d="M51.2444 65L65 59.9107L45 50L51.2444 65Z" fill="#071B5C"/>
<path d="M65 60L82 56.9368L71.0356 49L65 60Z" fill="#0F2F82"/>
<path d="M84 43L82.5343 57L71 48.8853L84 43Z" fill="#1741AA"/>
<path d="M83.4795 43L92 53.991L82 57L83.4795 43Z" fill="#153A99"/>
<path d="M98 45.2202L84 43L92.4395 54L98 45.2202Z" fill="#1945B1"/>
<path d="M92 54.0421L101 59L97.6381 45L92 54.0421Z" fill="#12338C"/>
<path d="M92.4715 70L101 58.8211L92 54L92.4715 70Z" fill="#081E60"/>
<path d="M92 70L91.5516 54L82 57.0159L92 70Z" fill="#081E5F"/>
<path d="M81.8019 57L79 72L92 70.3997" fill="#061A57"/>
<path d="M65 60.2394L82 57L79.2912 72L65 60.2394Z" fill="#031042"/>
<path d="M66.6126 75L80 71.44L65 60L66.6126 75Z" fill="#05164F"/>
<path d="M42 38L45.3636 50L54 39.2444L42 38Z" fill="#05174F"/>
<path d="M41.8286 38L33 57L45 50.1564L41.8286 38Z" fill="#061853"/>
<path d="M44.8666 50L35 67L51 65.2727L44.8666 50Z" fill="#030F41"/>
<path d="M35.4857 67L45 50L33 56.909L35.4857 67Z" fill="#041245"/>
<path d="M24 70L32.4065 57L35 66.7193L24 70Z" fill="#061A58"/>
<path d="M114 70.8313C114 70.826 114 70.8207 114 70.8154C114 70.8131 114 70.8109 114 70.8085V70.8056L113.501 54.1267C113.501 54.1244 113.5 54.1222 113.5 54.1197C113.5 54.1172 113.5 54.1117 113.499 54.1074C113.498 54.1031 113.497 54.0959 113.496 54.0901C113.495 54.0844 113.493 54.0754 113.492 54.0681C113.492 54.0664 113.492 54.0646 113.491 54.0628L110.983 45.74V45.738V45.7371C110.983 45.7352 110.982 45.7336 110.981 45.7318C110.98 45.7272 110.978 45.7228 110.976 45.7183C110.974 45.7139 110.971 45.706 110.968 45.7005C110.967 45.698 110.967 45.6954 110.965 45.693L103.79 32.1529C103.788 32.1505 103.786 32.1486 103.785 32.1463C103.782 32.1416 103.78 32.1369 103.777 32.1323C103.774 32.1278 103.771 32.1243 103.768 32.12C103.766 32.1157 103.765 32.1152 103.763 32.1129C103.761 32.1105 103.758 32.1075 103.756 32.1046C103.753 32.1018 103.753 32.1003 103.751 32.0983L95.5445 23.4476C95.5433 23.4464 95.5418 23.4454 95.5405 23.4441L95.5349 23.4384C95.5302 23.4339 95.5246 23.43 95.5194 23.4261C95.5142 23.4221 95.5126 23.4194 95.5086 23.4166L95.5072 23.4156L95.5056 23.4145L86.796 17.1957C86.7947 17.1947 86.7932 17.1942 86.7918 17.1933C86.7905 17.1925 86.7864 17.1895 86.7834 17.1877C86.7776 17.184 86.7711 17.1813 86.7654 17.1782C86.7597 17.1751 86.753 17.1715 86.7467 17.1688C86.7453 17.1688 86.7441 17.1673 86.7427 17.1667L79.1832 14.1993H79.1826L79.178 14.1974C79.1768 14.1974 79.1755 14.1974 79.1743 14.1964C79.1731 14.1955 79.1718 14.1951 79.1705 14.1947H79.169H79.1681L70.0933 10.9653C70.0905 10.9643 70.0875 10.964 70.0847 10.9632C70.0789 10.9613 70.0732 10.9597 70.0673 10.9582C70.0614 10.9568 70.0567 10.9558 70.0512 10.9549C70.0458 10.954 70.0402 10.9534 70.0346 10.9529C70.0316 10.9529 70.0289 10.9517 70.0259 10.9515L55.0814 10H55.0782H55.0742C55.0682 10 55.0619 10.0007 55.0558 10.001C55.0476 10.0011 55.0393 10.0016 55.0311 10.0026L55.0249 10.0033H55.0217L45.5977 11.7045C45.5957 11.7045 45.594 11.7057 45.5921 11.7061C45.5902 11.7064 45.5864 11.7068 45.5836 11.7075C45.5807 11.7083 45.5795 11.7089 45.5774 11.7095C45.5717 11.711 45.566 11.7122 45.5606 11.7142L37.8796 14.0757L37.877 14.0768C37.8713 14.0787 37.8658 14.0814 37.8601 14.0836C37.8544 14.0858 37.8469 14.0889 37.8403 14.0922C37.8371 14.0938 37.8338 14.0953 37.8306 14.097C37.8295 14.0976 37.8284 14.0979 37.8272 14.0985L24.1829 22.0848C24.1819 22.0848 24.1813 22.0861 24.1803 22.0866C24.1763 22.089 24.1728 22.0919 24.1689 22.0945C24.1651 22.0971 24.1619 22.0989 24.1584 22.1015C24.155 22.1041 24.1523 22.1068 24.1492 22.1094C24.1461 22.112 24.1436 22.1136 24.141 22.1159C24.1384 22.1183 24.1346 22.123 24.1313 22.1263C24.1279 22.1296 24.1261 22.1306 24.1237 22.1331L24.1204 22.1367L15.5962 31.6471C15.595 31.6486 15.5941 31.6502 15.5929 31.6517C15.5916 31.6532 15.5888 31.6564 15.5868 31.6587C15.5848 31.6611 15.5831 31.6639 15.5811 31.6665C15.5792 31.6691 15.5761 31.6737 15.5736 31.6774C15.5725 31.6792 15.571 31.6805 15.5699 31.6824L15.5671 31.687L7.70711 44.4546C7.70563 44.4569 7.70488 44.4595 7.70353 44.462C7.70093 44.4664 7.69846 44.4709 7.69612 44.4754C7.69377 44.48 7.69167 44.4856 7.68957 44.4908C7.68747 44.496 7.685 44.5031 7.68302 44.5086C7.68216 44.5113 7.6808 44.5135 7.67994 44.5162L4.58691 55.3854C4.58691 55.3869 4.58691 55.3884 4.58605 55.39C4.58518 55.3916 4.58444 55.3951 4.58382 55.3978L4.58296 55.4008V55.4041C4.58185 55.4098 4.5816 55.4156 4.58086 55.4214C4.58012 55.4272 4.57888 55.4337 4.57864 55.4395C4.57864 55.4411 4.57864 55.4426 4.57802 55.4442L4 71.9353C4 71.9388 4.00062 71.9422 4.00074 71.9457C4.00086 71.9493 4.00074 71.956 4.00074 71.9611C4.00074 71.9663 4.00198 71.9714 4.00259 71.9765C4.00321 71.9817 4.00482 71.99 4.0063 71.9966C4.00704 71.9998 4.00692 72.003 4.00778 72.0062L4.00963 72.0131L6.95593 83.2501L6.95716 83.2546C6.95803 83.2574 6.95914 83.2602 6.96 83.2631C6.96276 83.2711 6.96593 83.2789 6.96951 83.2866C6.97124 83.2906 6.97211 83.2946 6.97408 83.2989L6.97507 83.3009V83.302L13.4777 96.0997L13.4789 96.1016C13.48 96.1038 13.4816 96.1058 13.4829 96.1079C13.4869 96.115 13.4911 96.122 13.4952 96.1288C13.4966 96.1308 13.4974 96.133 13.4988 96.1348L18.0831 102.314L18.084 102.315L18.0853 102.317C18.0859 102.318 18.0868 102.318 18.0874 102.319C18.088 102.32 18.0911 102.324 18.0931 102.327C18.0971 102.332 18.1021 102.336 18.1066 102.341C18.1112 102.345 18.1129 102.348 18.1166 102.352L24.4623 108.17C24.4672 108.174 24.4729 108.178 24.4781 108.182C24.4833 108.187 24.4861 108.19 24.4904 108.193L32.4125 113.552C32.4142 113.553 32.4162 113.554 32.4179 113.555L32.4198 113.556C32.426 113.56 32.4321 113.564 32.4388 113.567C32.4422 113.569 32.4454 113.571 32.4487 113.572C32.4499 113.572 32.451 113.573 32.4524 113.574L42.2212 117.824C42.2244 117.825 42.2276 117.826 42.2309 117.827C42.2381 117.83 42.2453 117.832 42.2527 117.834C42.2565 117.835 42.2601 117.836 42.2639 117.837C42.2697 117.839 42.2755 117.84 42.2813 117.841C42.2847 117.841 42.2878 117.842 42.2912 117.843L58.6402 119.761C58.6461 119.762 58.6525 119.762 58.6579 119.762C58.6594 119.762 58.6607 119.762 58.6621 119.762L67.1983 120H67.2051H67.2074C67.2235 120 67.2395 119.998 67.2552 119.995C67.2587 119.994 67.2618 119.993 67.2653 119.992C67.2676 119.992 67.2699 119.992 67.2722 119.991L79.9063 116.432C79.9089 116.431 79.911 116.43 79.9136 116.429C79.9162 116.429 79.9212 116.427 79.9249 116.426C79.9286 116.425 79.9314 116.423 79.9348 116.421L79.9415 116.418C79.9465 116.416 79.9515 116.414 79.9564 116.412L79.9583 116.411L79.9635 116.408H79.9643L91.2501 110.213L91.2534 110.211L91.2581 110.208C91.2647 110.204 91.2705 110.2 91.2765 110.195C91.2816 110.192 91.287 110.189 91.2917 110.185H91.2923L98.5581 103.985C98.5609 103.983 98.5629 103.98 98.5656 103.977C98.5684 103.975 98.5721 103.972 98.5751 103.968C98.5782 103.965 98.5813 103.962 98.5843 103.959C98.5852 103.958 98.5863 103.957 98.5871 103.956L104.22 97.2352L104.221 97.234C104.222 97.233 104.222 97.2318 104.223 97.2308C104.23 97.2215 104.237 97.2117 104.243 97.2015C104.245 97.1979 104.248 97.1946 104.25 97.191L104.251 97.1881L112.216 81.5946C112.218 81.5909 112.218 81.5869 112.22 81.5831C112.223 81.577 112.226 81.5708 112.228 81.5645C112.229 81.5617 112.23 81.5587 112.231 81.5558C112.233 81.5491 112.234 81.5425 112.236 81.5357C112.237 81.5313 112.239 81.5271 112.239 81.5225L113.997 70.858V70.8558C113.997 70.8537 113.997 70.8516 113.997 70.8495C113.997 70.8474 113.998 70.8436 113.999 70.8405C113.999 70.8375 114 70.8344 114 70.8313ZM24.7831 107.794L23.1405 106.288L26.8361 109.182L24.7831 107.794ZM48.7608 114.058L42.9869 111.358L56.6535 112.588L48.7608 114.058ZM50.8667 64.8922L35.7071 66.4882L45.0555 50.7807L50.8667 64.8922ZM45.5752 50.7461L64.0961 60.0239L51.3577 64.7881L45.5752 50.7461ZM51.0055 65.3731L52.7675 79.348L35.9022 66.9631L51.0055 65.3731ZM52.5465 79.7977L34.2271 85.5626L35.4596 67.2493L52.5465 79.7977ZM51.5327 65.6064L65.732 75.0355L53.2908 79.5495L51.5327 65.6064ZM51.759 65.1646L64.4993 60.3999L65.9758 74.606L51.759 65.1646ZM71.3339 48.7539L83.1413 43.1779L81.8103 56.4418L71.3339 48.7539ZM81.4057 56.7569L65.1738 59.7224L70.9365 49.0745L81.4057 56.7569ZM64.7113 59.5393L54.1372 40.1207L70.5188 48.8085L64.7113 59.5393ZM64.1185 59.484L45.4766 50.1455L53.4899 39.9656L64.1185 59.484ZM35.3324 66.1519L32.9567 57.0828L44.4253 50.8734L35.3324 66.1519ZM33.7622 85.1134L24.7021 70.2453L34.9728 67.1249L33.7622 85.1134ZM52.2623 80.4037L43.045 90.2502L34.6063 85.9601L52.2623 80.4037ZM65.91 75.4956L62.6226 87.3358L53.5775 79.9696L65.91 75.4956ZM65.0185 60.6125L78.721 71.4221L66.4917 74.7858L65.0185 60.6125ZM65.2936 60.2012L81.7035 57.2033L79.0886 71.0841L65.2936 60.2012ZM82.2964 56.5482L83.6123 43.4318L91.1937 53.7291L82.2964 56.5482ZM91.3592 54.1939L91.7791 69.2143L82.4225 57.0247L91.3592 54.1939ZM71.1124 48.3132L71.4276 37.1644L82.8619 42.7645L71.1124 48.3132ZM70.6184 48.3037L54.2987 39.6483L70.9363 37.0633L70.6184 48.3037ZM45.2044 49.6934L42.1456 38.5624L53.0582 39.7168L45.2044 49.6934ZM44.8058 50.1069L33.23 56.3744L41.7467 38.974L44.8058 50.1069ZM34.9444 66.6181L24.8908 69.673L32.5742 57.5694L34.9444 66.6181ZM33.1233 85.0141L20.571 76.1204L24.3152 70.5592L33.1233 85.0141ZM34.1361 86.2746L42.5717 90.563L32.1958 96.2939L34.1361 86.2746ZM53.107 80.2232L62.1662 87.6006L43.7574 90.2116L53.107 80.2232ZM66.4024 75.5669L79.7733 88.4963L63.0791 87.5369L66.4024 75.5669ZM66.7574 75.2239L79.0297 71.8487L80.1321 88.158L66.7574 75.2239ZM82.153 57.4857L91.5874 69.7775L79.5608 71.2456L82.153 57.4857ZM91.8555 54.2901L99.8231 58.7934L92.2728 69.2349L91.8555 54.2901ZM91.9395 53.7711L96.8736 45.6522L99.8159 58.2229L91.9395 53.7711ZM91.5768 53.4174L83.9888 43.1111L96.576 45.1912L91.5768 53.4174ZM71.6267 36.714L80.5391 28.6456L83.0974 42.3319L71.6267 36.714ZM53.9927 39.1972L59.6469 29.1628L70.5395 36.6265L53.9927 39.1972ZM42.1888 38.0716L48.5989 25.0374L53.1771 39.2338L42.1888 38.0716ZM32.6474 56.4416L24.8787 43.4725L41.3442 38.6722L32.6474 56.4416ZM24.4265 69.4826L20.669 54.3701L32.2754 57.1183L24.4265 69.4826ZM20.2874 75.658L16.8415 67.0956L23.9556 70.2089L20.2874 75.658ZM33.6837 86.0153L31.738 96.0591L20.9892 77.0207L33.6837 86.0153ZM42.949 90.918L45.8968 100.873L32.4781 96.7016L42.949 90.918ZM62.4395 88.0593L59.5171 100.997L43.7821 90.706L62.4395 88.0593ZM79.8201 88.9924L72.2547 95.844L63.455 88.0519L79.8201 88.9924ZM79.5469 72.1749L91.1949 83.9455L80.6449 88.4179L79.5469 72.1749ZM79.7847 71.7135L91.7907 70.2477L91.3965 83.4472L79.7847 71.7135ZM100.091 59.2648L104.886 75.4158L92.4244 69.8675L100.091 59.2648ZM97.3724 45.6181L105.194 51.5499L100.303 58.1401L97.3724 45.6181ZM83.9074 42.5978L91.168 34.28L96.5326 44.6842L83.9074 42.5978ZM83.5797 42.2225L81.0385 28.6281L90.832 33.9143L83.5797 42.2225ZM71.1703 36.461L60.3263 29.0304L80.0391 28.4322L71.1703 36.461ZM53.5901 38.906L49.0435 24.8077L59.2114 28.93L53.5901 38.906ZM41.7689 37.806L36.504 30.6678L48.1034 24.9245L41.7689 37.806ZM41.4031 38.1415L25.2772 42.8431L36.1109 30.9659L41.4031 38.1415ZM32.1573 56.584L20.6645 53.8626L24.5505 43.8849L32.1573 56.584ZM23.9653 69.6749L16.6893 66.4907L20.3044 54.9506L23.9653 69.6749ZM19.9079 76.0382L13.6495 78.3269L16.4398 67.4194L19.9079 76.0382ZM31.1648 96.0488L17.3968 87.5159L20.3124 76.8268L31.1648 96.0488ZM45.183 101.168L32.1599 103.234L32.1035 97.1007L45.183 101.168ZM43.5257 91.1291L58.8375 101.144L46.4496 101.003L43.5257 91.1291ZM62.9082 88.2267L71.7983 96.0989L60.0259 100.988L62.9082 88.2267ZM80.3147 89.2104L85.0129 102.232L72.6902 96.1156L80.3147 89.2104ZM80.7335 88.9161L91.2211 84.4697L85.4434 101.97L80.7335 88.9161ZM92.2823 70.3436L104.742 75.8908L91.8865 83.5875L92.2823 70.3436ZM100.626 59.3303L108.772 65.1301L105.295 75.0568L100.626 59.3303ZM100.533 58.659L105.429 52.0612L108.656 64.441L100.533 58.659ZM97.2652 44.9168L99.5388 37.8666L104.954 50.7478L97.2652 44.9168ZM96.9237 44.3663L91.7431 34.3182L99.2031 37.2998L96.9237 44.3663ZM81.5716 28.3556L92.4199 27.6472L91.0538 33.4737L81.5716 28.3556ZM60.0926 28.545L67.7306 19.0723L79.9711 27.9414L60.0926 28.545ZM59.6414 28.3183L55.7089 18.0173L67.2005 18.943L59.6414 28.3183ZM59.1311 28.3662L49.0852 24.2928L55.2437 18.182L59.1311 28.3662ZM36.5618 30.0892L40.8814 17.629L48.2137 24.3199L36.5618 30.0892ZM24.9727 42.4444L28.136 29.4972L35.6429 30.7462L24.9727 42.4444ZM20.2782 53.4938L16.2218 47.1274L24.0604 43.7826L20.2782 53.4938ZM20.0615 54.0728L16.5943 65.141L16.1285 47.8996L20.0615 54.0728ZM16.0695 66.8745L13.2421 77.9272L8.803 66.8849L16.0695 66.8745ZM8.69048 66.3923L8.9275 55.5413L15.9347 66.3814L8.69048 66.3923ZM19.868 76.5775L17.0581 86.8796L13.6237 78.8612L19.868 76.5775ZM31.1443 96.6162L22.6127 97.8249L17.7341 88.3049L31.1443 96.6162ZM31.6076 97.0484L31.6632 103.093L23.2152 98.237L31.6076 97.0484ZM45.8386 101.563L41.5193 110.605L32.5181 103.676L45.8386 101.563ZM46.3423 101.654L57.7556 112.192L41.9873 110.773L46.3423 101.654ZM46.902 101.5L59.4045 101.641L58.2642 111.988L46.902 101.5ZM72.0237 96.5389L72.5004 108.229L60.2458 101.43L72.0237 96.5389ZM72.5198 96.5816L84.8857 102.72L72.9973 108.277L72.5198 96.5816ZM91.6972 84.6012L97.8356 94.2011L85.9121 102.126L91.6972 84.6012ZM92.1245 84.3532L103.943 86.0901L98.1893 93.8382L92.1245 84.3532ZM92.3448 83.8876L104.986 76.3189L104.165 85.6246L92.3448 83.8876ZM109.042 65.8514L111.275 73.6612L105.673 75.471L109.042 65.8514ZM106.072 52.5698L112.475 60.6339L109.185 64.5142L106.072 52.5698ZM100.081 37.8822L108.396 43.9727L105.536 50.8598L100.081 37.8822ZM91.5095 33.694L92.8498 27.9772L98.8386 36.6237L91.5095 33.694ZM80.9087 27.9052L79.4654 19.1703L91.9725 27.1828L80.9087 27.9052ZM80.3597 27.6135L68.4393 18.976L78.9214 18.911L80.3597 27.6135ZM56.1114 17.5549L63.8931 12.7786L67.2319 18.4507L56.1114 17.5549ZM48.6392 24.0404L41.4339 17.4656L54.762 17.9647L48.6392 24.0404ZM35.9657 30.3004L28.4827 29.0555L40.2096 18.0586L35.9657 30.3004ZM24.3559 42.8881L16.7001 36.672L27.5648 29.7544L24.3559 42.8881ZM24.0305 43.2592L16.1201 46.6344L16.5059 37.1494L24.0305 43.2592ZM16.1162 65.7542L9.00889 54.759L15.627 47.6259L16.1162 65.7542ZM13.0376 78.7429L11.6889 85.4687L9.0268 68.7669L13.0376 78.7429ZM13.3802 79.5469L16.711 87.3232L11.9546 86.6562L13.3802 79.5469ZM22.022 97.7561L17.0006 96.7901L17.3203 88.5795L22.022 97.7561ZM31.5074 103.572L27.94 107.002L23.1499 98.7674L31.5074 103.572ZM31.9331 103.847L40.4986 110.441L28.3725 107.271L31.9331 103.847ZM59.885 101.794L72.1138 108.578L58.7413 112.171L59.885 101.794ZM85.1743 103.129L84.5048 111.66L73.4743 108.599L85.1743 103.129ZM97.4443 95.0537L90.6536 106.945L85.859 102.753L97.4443 95.0537ZM104.146 86.6469L104.183 92.8739L98.7502 93.9114L104.146 86.6469ZM105.507 76.0426L111.031 74.2579L104.729 84.8499L105.507 76.0426ZM109.34 65.095L112.476 61.3953L111.452 72.4871L109.34 65.095ZM105.822 51.4608L108.638 44.6788L112.287 59.6024L105.822 51.4608ZM99.8318 37.0881L101.81 33.6333L107.772 42.904L99.8318 37.0881ZM99.4884 36.6945L93.6369 28.2463L101.467 33.2393L99.4884 36.6945ZM79.8543 18.8341L85.7782 18.2037L91.7707 26.4681L79.8543 18.8341ZM67.8263 18.4871L64.5633 12.9439L77.9013 18.4247L67.8263 18.4871ZM55.4272 17.3963L52.7997 12.7945L63.0915 12.6921L55.4272 17.3963ZM54.9046 17.4769L41.9418 16.9914L52.2696 12.861L54.9046 17.4769ZM28.7054 28.1703L33.3472 18.1187L40.0791 17.5049L28.7054 28.1703ZM27.8715 28.7985L23.6282 24.7222L32.5834 18.5948L27.8715 28.7985ZM27.5533 29.1771L17.003 35.8946L23.2939 25.0855L27.5533 29.1771ZM15.6267 46.6109L10.3318 43.7639L16.004 37.3325L15.6267 46.6109ZM15.4597 47.0808L9.02877 54.0128L10.1454 44.2235L15.4597 47.0808ZM8.19336 66.5206L5.47432 68.7457L8.40246 56.948L8.19336 66.5206ZM8.26154 67.1021L11.0368 84.5162L5.34945 69.4852L8.26154 67.1021ZM16.8548 87.8409L16.5361 96.0241L12.0925 87.1729L16.8548 87.8409ZM22.3153 98.3143L26.8292 106.074L17.539 97.3955L22.3153 98.3143ZM41.3561 111.175L41.1599 115.67L29.3129 108.025L41.3561 111.175ZM41.8423 111.367L47.99 114.241L41.649 115.793L41.8423 111.367ZM58.2181 112.797L58.4091 119.102L49.4736 114.426L58.2181 112.797ZM72.3408 109.027L68.7166 117.561L59.1323 112.576L72.3408 109.027ZM72.909 108.953L83.9305 112.012L69.291 117.472L72.909 108.953ZM85.6617 103.235L90.3314 107.318L85.0177 111.44L85.6617 103.235ZM98.3337 94.4925L103.717 93.4644L91.9187 105.727L98.3337 94.4925ZM104.673 92.1131L104.636 86.0435L109.602 83.0089L104.673 92.1131ZM105.11 85.1765L111.138 75.045L110.029 82.1704L105.11 85.1765ZM112.797 63.2974L113.499 70.7472L111.906 72.9479L112.797 63.2974ZM109.136 44.6353L110.514 45.9277L111.891 55.9055L109.136 44.6353ZM102.154 33.2543L103.45 32.604L107.197 41.0973L102.154 33.2543ZM93.0866 27.3094L95.3616 24.0522L100.929 32.3121L93.0866 27.3094ZM92.7333 26.9533L86.8024 18.774L95.0114 23.6918L92.7333 26.9533ZM79.375 18.3896L79.338 14.8337L85.051 17.7855L79.375 18.3896ZM78.88 18.2938L65.8227 12.9283L78.8424 14.6426L78.88 18.2938ZM53.0508 12.2993L55.1299 10.5155L62.0232 12.2101L53.0508 12.2993ZM41.698 16.5578L45.7403 12.2031L51.3301 12.7056L41.698 16.5578ZM40.6537 16.9574L34.5325 17.5156L44.5829 12.7247L40.6537 16.9574ZM23.8205 23.993L24.4976 22.4778L30.1151 19.6855L23.8205 23.993ZM16.4471 35.8685L16.0385 31.9061L22.1488 26.0715L16.4471 35.8685ZM16.0224 36.5658L10.9554 42.311L15.624 32.6992L16.0224 36.5658ZM8.47323 54.5231L5.23867 55.125L9.51132 45.4226L8.47323 54.5231ZM8.36602 55.0444L5.27152 67.5125L5.07452 55.6568L8.36602 55.0444ZM11.1017 86.0843L7.42452 83.0575L5.66329 71.7101L11.1017 86.0843ZM16.2583 96.5721L13.9093 95.7988L12.3379 88.7632L16.2583 96.5721ZM26.2977 106.253L18.4936 102.004L17.241 97.7926L26.2977 106.253ZM27.7212 107.59L31.1002 111.898L20.7725 103.806L27.7212 107.59ZM28.9858 108.401L39.7294 115.334L32.6989 113.136L28.9858 108.401ZM48.6962 114.576L57.0454 118.945L42.5304 116.085L48.6962 114.576ZM58.716 112.915L68.0627 117.777L58.9072 119.229L58.716 112.915ZM83.5258 112.689L79.7312 115.963L71.1933 117.288L83.5258 112.689ZM90.5391 107.782L90.8551 109.824L85.95 111.341L90.5391 107.782ZM103.266 94.6445L98.2207 103.607L91.8014 106.56L103.266 94.6445ZM104.673 93.1506L108.051 86.9105L104.44 95.4704L104.673 93.1506ZM111.813 73.9187L113.088 72.1572L111.038 78.8997L111.813 73.9187ZM113.04 60.6198V60.6156V60.6135L113.039 60.6082C113.039 60.6071 113.039 60.6061 113.039 60.6051L113.021 60.4744L113.148 58.8039L113.278 63.1295L113.04 60.6198ZM112.701 58.1601L111.424 48.915L113.005 54.1604L112.701 58.1601ZM108.904 43.743L106.575 38.4639L109.834 44.6152L108.904 43.743ZM101.881 32.8403L97.2295 25.9413L103.163 32.1969L101.881 32.8403ZM86.342 17.9243L86.653 17.6995L90.2291 20.2529L86.342 17.9243ZM85.8727 17.6549L83.4547 16.4055L86.1419 17.4603L85.8727 17.6549ZM65.4615 12.3836L69.9926 11.4523L76.811 13.8779L65.4615 12.3836ZM63.9834 12.1843L57.8135 10.6678L68.1588 11.3263L63.9834 12.1843ZM52.2952 12.2975L47.4824 11.8651L54.2161 10.6497L52.2952 12.2975ZM35.3127 16.5974L38.0661 14.5336L42.505 13.1689L35.3127 16.5974ZM33.0525 17.6752L30.6644 18.8629L34.3362 16.7138L33.0525 17.6752ZM23.0327 24.5457L20.1995 27.2509L23.439 23.6366L23.0327 24.5457ZM9.76204 43.6373L8.50226 44.1039L13.3962 36.1545L9.76204 43.6373ZM8.12086 44.7706L9.48032 44.267L6.04295 52.0728L8.12086 44.7706ZM4.73611 65.0259L4.80812 69.3705L4.55579 70.1605L4.73611 65.0259ZM4.97251 70.4806L6.21204 78.4665L4.50342 71.9502L4.97251 70.4806ZM11.4385 87.0003L13.0303 94.1271L7.94993 84.1284L11.4385 87.0003ZM16.5457 97.1856L17.6509 100.901L14.3605 96.4666L16.5457 97.1856ZM41.2268 116.318L41.6878 117.053L36.8586 114.952L41.2268 116.318ZM42.4667 117.366L41.8998 116.462L52.4052 118.533L42.4667 117.366ZM68.2003 118.254L67.0958 119.505L61.3287 119.344L68.2003 118.254ZM68.9661 118.133L75.8404 117.066L67.9443 119.29L68.9661 118.133ZM84.8501 112.198L88.8817 110.951L81.7726 114.853L84.8501 112.198ZM91.308 109.522L90.9915 107.476L96.8828 104.766L91.308 109.522ZM104.068 94.2257L103.793 96.9754L99.9181 101.598L104.068 94.2257ZM110.447 82.5018L111.443 82.0221L106.886 90.9427L110.447 82.5018ZM111.773 81.3158L110.655 81.8541L112.902 74.4669L111.773 81.3158Z" fill="#58C1FF" fill-opacity="0.3"/>
<path d="M10 90C16.3545 94.6325 35.8993 98 58.9964 98C82.0855 98 101.596 94.6371 108 90.0154" stroke="#F9F9FA" stroke-width="6" stroke-miterlimit="10" stroke-linecap="round"/>
<path d="M95.0032 11C92.056 14.4652 90.6834 22.264 93.6718 30.1699C96.6603 38.0758 101.241 36.3587 104.096 44.4207C107.865 55.0585 106.111 69.3486 106.111 69.3486C106.111 69.3486 110.641 82.5972 113.799 68.5242C120.787 42.0909 95.0032 17.5093 95.0032 11Z" fill="url(#paint0_linear_513_311)"/>
<path d="M100.846 99.19C99.6558 100.026 98.4071 100.776 97.1095 101.435C98.8284 98.9282 100.414 96.3337 101.86 93.6621C103.034 92.3696 104.109 91.1131 104.985 89.7545C105.411 89.087 105.892 88.2633 106.401 87.3078C109.492 81.7649 112.901 72.7945 112.997 63.5805V63.5583C113 63.3315 113.001 63.1046 112.999 62.8775C113.015 60.5646 112.778 58.2569 112.291 55.9953C112.315 56.172 112.337 56.3485 112.36 56.525C112.332 56.3892 112.309 56.252 112.28 56.1159C112.325 56.367 112.362 56.6097 112.401 56.8545C113.033 62.1897 112.583 67.3938 110.331 71.2304C110.296 71.2865 110.259 71.3389 110.224 71.3937C111.391 65.5627 111.781 59.1243 110.483 52.6786C110.483 52.6786 109.963 49.545 106.094 40.0321C103.868 34.5567 99.913 30.0676 96.4191 26.7973C93.3565 23.0263 90.5749 20.4957 89.0416 18.889C85.8377 15.5315 84.4954 13.0156 83.9441 11.3739C83.4662 11.1354 77.3531 5.22517 76.8675 5C74.1992 9.11747 65.8075 21.9961 69.7988 34.0292C71.6079 39.4822 76.183 45.1419 80.9711 48.3169C81.1813 48.5559 83.8202 51.4084 85.0752 57.842C86.3718 64.4896 85.6902 69.6763 83.0231 77.3459C79.8866 84.0746 71.8509 90.7266 64.3268 91.407C48.2418 92.8615 42.3531 83.3695 42.3531 83.3695C48.1008 85.6564 54.4558 85.178 58.3205 82.807C62.2154 80.409 64.5715 78.6311 66.4838 79.3321C68.3692 80.03 69.8702 78.0043 68.5233 75.9043C67.4832 74.3099 65.9949 73.0552 64.2436 72.2963C62.4924 71.5374 60.5556 71.3078 58.6742 71.6362C54.7752 72.2669 51.2036 75.3408 46.0947 72.3638C45.7641 72.1729 45.444 71.9642 45.136 71.7389C44.7992 71.5185 46.2308 72.0743 45.8968 71.8239C44.9025 71.2863 43.143 70.115 42.6865 69.6984C42.6105 69.629 43.4579 69.9674 43.3819 69.8979C38.605 65.983 39.2016 63.3384 39.3517 61.6797C39.4719 60.3528 40.3396 58.6524 41.8017 57.9626C42.5079 58.3462 42.9479 58.639 42.9479 58.639C42.9479 58.639 42.6467 58.0266 42.4838 57.7038C42.5409 57.6791 42.5955 57.6856 42.6523 57.6615C43.2308 57.9394 44.5101 58.6615 45.1836 59.1018C46.0609 59.7176 46.3405 60.2667 46.3405 60.2667C46.3405 60.2667 46.5714 60.1402 46.4006 59.6032C46.3386 59.3829 46.0723 58.6831 45.2034 57.9768L45.2577 57.9829C45.7778 58.2778 46.2704 58.6183 46.7297 59.0002C46.9747 58.1137 47.4153 57.1881 47.3184 55.5322C47.2593 54.368 47.2865 54.0665 47.0804 53.6169C46.8958 53.2307 47.1838 53.0801 47.5044 53.4811C47.4495 53.1669 47.3576 52.8603 47.2305 52.5676L47.2332 52.5374C47.6332 51.1504 55.6989 47.5425 56.286 47.1208C57.2507 46.4415 58.0595 45.5663 58.6592 44.553C59.1079 43.8416 59.4453 42.8434 59.5275 41.3294C59.5716 40.2376 59.0613 39.5105 50.9056 38.6607C48.6752 38.442 47.3666 36.8336 46.6229 35.3493C46.4872 35.0296 46.3489 34.7399 46.2105 34.4504C46.0783 34.1119 45.9723 33.764 45.8932 33.4096C47.2265 29.5983 49.4669 26.3757 52.7611 23.9409C52.9406 23.7781 52.0439 23.9826 52.2232 23.8199C52.4325 23.63 53.7993 23.082 54.0575 22.9586C54.3728 22.8104 52.7076 22.1067 51.2377 22.2781C49.7406 22.446 49.4227 22.6238 48.6237 22.9609C48.9553 22.6324 50.0097 22.2018 49.7625 22.2046C48.1485 22.4509 46.143 23.3846 44.4286 24.4421C44.4249 24.2579 44.4598 24.075 44.5312 23.9051C43.7322 24.2423 41.77 25.6072 41.1987 26.762C41.2234 26.5406 41.2344 26.318 41.2317 26.0953C40.6232 26.6006 40.0742 27.1729 39.5952 27.8013L39.5653 27.8283C34.9313 25.9704 30.8534 25.8502 27.4025 26.6832C26.6476 25.9287 26.2788 26.4802 24.561 22.7242C24.4443 22.4981 24.6506 22.9476 24.561 22.7242C24.2784 21.9959 24.7333 23.6961 24.561 22.7242C21.6728 24.9923 17.8726 27.5627 16.0484 29.377C16.0258 29.4494 18.1765 28.7721 16.0484 29.377C15.3031 29.5889 15.3538 30.029 15.2405 34.0064C15.2132 34.308 15.2374 34.6458 15.2128 34.9173C13.7556 36.7651 12.7631 38.3298 12.3877 39.1407C10.5032 42.3726 8.42753 47.4109 6.41555 55.3808C7.30296 53.2202 8.37291 51.1385 9.61389 49.158C7.94079 53.3883 6.32338 60.0313 6 70.2613C6.40473 68.1503 6.9237 66.0626 7.55464 64.0073C7.15965 72.4945 8.63028 80.9653 11.8639 88.8285C13.0211 91.6458 14.9352 95.9214 18.1937 100.606C28.4314 111.326 42.8716 118 58.8617 118C75.5556 118.001 90.5455 110.732 100.846 99.19Z" fill="url(#paint1_linear_513_311)"/>
<path d="M100.846 99.19C99.6558 100.026 98.4071 100.776 97.1095 101.435C98.8284 98.9282 100.414 96.3337 101.86 93.6621C103.034 92.3696 104.109 91.1131 104.985 89.7545C105.411 89.087 105.892 88.2633 106.401 87.3078C109.492 81.7649 112.901 72.7945 112.997 63.5805V63.5583C113 63.3315 113.001 63.1046 112.999 62.8775C113.015 60.5646 112.778 58.2569 112.291 55.9953C112.315 56.172 112.337 56.3485 112.36 56.525C112.332 56.3892 112.309 56.252 112.28 56.1159C112.325 56.367 112.362 56.6097 112.401 56.8545C113.033 62.1897 112.583 67.3938 110.331 71.2304C110.296 71.2865 110.259 71.3389 110.224 71.3937C111.391 65.5627 111.781 59.1243 110.483 52.6786C110.483 52.6786 109.963 49.545 106.094 40.0321C103.868 34.5567 99.913 30.0676 96.4191 26.7973C93.3565 23.0263 90.5749 20.4957 89.0416 18.889C85.8377 15.5315 84.4954 13.0156 83.9441 11.3739C83.4662 11.1354 77.3531 5.22517 76.8675 5C74.1992 9.11747 65.8075 21.9961 69.7988 34.0292C71.6079 39.4822 76.183 45.1419 80.9711 48.3169C81.1813 48.5559 83.8202 51.4084 85.0752 57.842C86.3718 64.4896 85.6902 69.6763 83.0231 77.3459C79.8866 84.0746 71.8509 90.7266 64.3268 91.407C48.2418 92.8615 42.3531 83.3695 42.3531 83.3695C48.1008 85.6564 54.4558 85.178 58.3205 82.807C62.2154 80.409 64.5715 78.6311 66.4838 79.3321C68.3692 80.03 69.8702 78.0043 68.5233 75.9043C67.4832 74.3099 65.9949 73.0552 64.2436 72.2963C62.4924 71.5374 60.5556 71.3078 58.6742 71.6362C54.7752 72.2669 51.2036 75.3408 46.0947 72.3638C45.7641 72.1729 45.444 71.9642 45.136 71.7389C44.7992 71.5185 46.2308 72.0743 45.8968 71.8239C44.9025 71.2863 43.143 70.115 42.6865 69.6984C42.6105 69.629 43.4579 69.9674 43.3819 69.8979C38.605 65.983 39.2016 63.3384 39.3517 61.6797C39.4719 60.3528 40.3396 58.6524 41.8017 57.9626C42.5079 58.3462 42.9479 58.639 42.9479 58.639C42.9479 58.639 42.6467 58.0266 42.4838 57.7038C42.5409 57.6791 42.5955 57.6856 42.6523 57.6615C43.2308 57.9394 44.5101 58.6615 45.1836 59.1018C46.0609 59.7176 46.3405 60.2667 46.3405 60.2667C46.3405 60.2667 46.5714 60.1402 46.4006 59.6032C46.3386 59.3829 46.0723 58.6831 45.2034 57.9768L45.2577 57.9829C45.7778 58.2778 46.2704 58.6183 46.7297 59.0002C46.9747 58.1137 47.4153 57.1881 47.3184 55.5322C47.2593 54.368 47.2865 54.0665 47.0804 53.6169C46.8958 53.2307 47.1838 53.0801 47.5044 53.4811C47.4495 53.1669 47.3576 52.8603 47.2305 52.5676L47.2332 52.5374C47.6332 51.1504 55.6989 47.5425 56.286 47.1208C57.2507 46.4415 58.0595 45.5663 58.6592 44.553C59.1079 43.8416 59.4453 42.8434 59.5275 41.3294C59.5716 40.2376 59.0613 39.5105 50.9056 38.6607C48.6752 38.442 47.3666 36.8336 46.6229 35.3493C46.4872 35.0296 46.3489 34.7399 46.2105 34.4504C46.0783 34.1119 45.9723 33.764 45.8932 33.4096C47.2265 29.5983 49.4669 26.3757 52.7611 23.9409C52.9406 23.7781 52.0439 23.9826 52.2232 23.8199C52.4325 23.63 53.7993 23.082 54.0575 22.9586C54.3728 22.8104 52.7076 22.1067 51.2377 22.2781C49.7406 22.446 49.4227 22.6238 48.6237 22.9609C48.9553 22.6324 50.0097 22.2018 49.7625 22.2046C48.1485 22.4509 46.143 23.3846 44.4286 24.4421C44.4249 24.2579 44.4598 24.075 44.5312 23.9051C43.7322 24.2423 41.77 25.6072 41.1987 26.762C41.2234 26.5406 41.2344 26.318 41.2317 26.0953C40.6232 26.6006 40.0742 27.1729 39.5952 27.8013L39.5653 27.8283C34.9313 25.9704 30.8534 25.8502 27.4025 26.6832C26.6476 25.9287 26.2788 26.4802 24.561 22.7242C24.4443 22.4981 24.6506 22.9476 24.561 22.7242C24.2784 21.9959 24.7333 23.6961 24.561 22.7242C21.6728 24.9923 17.8726 27.5627 16.0484 29.377C16.0258 29.4494 18.1765 28.7721 16.0484 29.377C15.3031 29.5889 15.3538 30.029 15.2405 34.0064C15.2132 34.308 15.2374 34.6458 15.2128 34.9173C13.7556 36.7651 12.7631 38.3298 12.3877 39.1407C10.5032 42.3726 8.42753 47.4109 6.41555 55.3808C7.30296 53.2202 8.37291 51.1385 9.61389 49.158C7.94079 53.3883 6.32338 60.0313 6 70.2613C6.40473 68.1503 6.9237 66.0626 7.55464 64.0073C7.15965 72.4945 8.63028 80.9653 11.8639 88.8285C13.0211 91.6458 14.9352 95.9214 18.1937 100.606C28.4314 111.326 42.8716 118 58.8617 118C75.5556 118.001 90.5455 110.732 100.846 99.19Z" fill="url(#paint2_linear_513_311)"/>
<path d="M87.8856 107.964C108.43 105.585 117.525 84.4195 105.846 84.0033C95.2962 83.6662 78.1542 109.086 87.8856 107.964Z" fill="url(#paint3_linear_513_311)"/>
<path d="M107.243 79.9723C121.215 71.7534 117.572 54 117.572 54C117.572 54 112.18 60.3316 108.517 70.4244C104.898 80.4184 98.8431 84.9364 107.243 79.9723Z" fill="url(#paint4_linear_513_311)"/>
<path d="M62.9698 117.59C82.4372 123.6 99.169 108.762 88.8554 103.807C79.4784 99.3387 53.73 114.748 62.9698 117.59Z" fill="url(#paint5_linear_513_311)"/>
<path d="M78.9063 2.91794C78.9492 2.87105 78.9719 2.84705 78.9719 2.84705C78.9451 2.86554 78.9227 2.88975 78.9063 2.91794ZM108.348 87.1423C108.818 86.4789 109.453 84.3545 110.014 83.4049C113.421 77.8969 113.446 73.5051 113.446 73.4046C115.504 63.1094 115.317 58.9056 114.051 51.1312C113.031 44.8714 108.574 35.9033 104.713 31.5848C100.734 27.1355 103.538 28.5852 99.6851 25.3352C96.3084 21.5876 93.0344 17.8765 91.2514 16.384C78.3667 5.59926 78.6577 3.30849 78.9063 2.91794C78.8644 2.96383 78.8029 3.032 78.7244 3.1212C78.5713 2.51216 78.4637 2 78.4637 2C78.4637 2 71.4205 9.05154 69.9377 20.8041C68.9697 28.4768 71.8385 36.4754 75.9924 41.5876C78.1554 44.237 80.5999 46.6429 83.2827 48.7629V48.7597C86.4213 53.2723 88.1487 58.8408 88.1487 64.8309C88.1487 79.8301 75.9972 91.9893 61.0074 91.9893C58.9645 91.9906 56.9278 91.7618 54.9359 91.3072C47.8636 89.9578 43.7795 86.3858 41.7427 83.961C40.5754 82.5712 40.079 81.5581 40.079 81.5581C46.4158 83.8308 53.4223 83.3554 57.683 80.9992C61.9768 78.6159 64.5747 76.8492 66.6831 77.5458C68.7615 78.2393 70.4162 76.2262 68.932 74.1393C67.4775 72.0554 63.6929 69.0708 58.0734 69.8977C53.7747 70.5246 49.8369 73.5794 44.2045 70.6208C43.8417 70.4321 43.4889 70.2248 43.1475 69.9998C42.7762 69.7807 44.3545 70.3332 43.9861 70.0841C42.8901 69.55 40.9498 68.3858 40.4469 67.9719C40.363 67.903 41.2974 68.2392 41.213 68.1698C35.9465 64.2792 36.604 61.6511 36.7697 60.0027C36.9023 58.6839 37.8588 56.994 39.4707 56.3086C40.2491 56.6898 40.7343 56.9808 40.7343 56.9808C40.7343 56.9808 40.4021 56.3721 40.2226 56.0513C40.2855 56.0273 40.3454 56.0334 40.4079 56.0094C41.0458 56.2855 42.4561 57.0027 43.1988 57.4407C44.1659 58.0527 44.4742 58.5984 44.4742 58.5984C44.4742 58.5984 44.7289 58.4727 44.5404 57.939C44.4716 57.7202 44.1785 57.0247 43.2205 56.3228L43.2804 56.3288C43.8491 56.619 44.3921 56.9573 44.9033 57.3399C45.1735 56.459 45.6593 55.539 45.5524 53.8934C45.4872 52.7365 45.5173 52.4367 45.29 51.99C45.0865 51.6065 45.4041 51.4566 45.7573 51.8554C45.6962 51.5408 45.5947 51.2355 45.4553 50.947L45.4584 50.9171C45.8995 49.5385 54.7919 45.9531 55.4391 45.534C56.4821 44.8786 57.3739 44.0086 58.0556 42.9818C58.5498 42.2748 58.9223 41.2829 59.013 39.7783C59.0434 39.1004 58.8349 38.5639 56.4799 38.0507C55.0664 37.7427 52.8797 37.4429 49.5067 37.1261C47.0478 36.9089 45.6049 35.3105 44.7851 33.8354C44.6355 33.5176 44.483 33.2292 44.3304 32.9419C44.1853 32.6075 44.0683 32.2616 43.9806 31.9077C45.452 28.0511 48.1019 24.758 51.5525 22.4979C51.7502 22.336 50.7617 22.5393 50.9594 22.3776C51.1902 22.1889 52.6971 21.6444 52.9818 21.5216C53.3294 21.3749 51.4935 20.6755 49.873 20.8454C48.2225 21.0123 47.872 21.1889 46.9911 21.5241C47.3567 21.1976 48.5191 20.7695 48.2466 20.7726C46.4673 21.0173 44.2555 21.9452 42.365 22.996C42.3615 22.8118 42.4006 22.6292 42.4791 22.4626C41.5982 22.7977 39.4349 24.1542 38.805 25.3018C38.8326 25.082 38.8453 24.8606 38.8429 24.6392C38.1795 25.1341 37.5743 25.7027 37.0388 26.334L37.0058 26.361C31.8968 24.5146 27.4009 24.3951 23.5963 25.2228C22.764 24.473 21.4258 23.3392 19.532 19.6063C19.4034 19.3816 19.3343 20.0709 19.2355 19.8489C18.4996 18.1401 18.055 15.3404 18.1281 13.4103C18.1281 13.4103 16.606 14.1048 15.3463 17.0053C15.1124 17.5268 14.9623 17.8144 14.8125 18.102C14.7435 18.1859 14.9688 17.1494 14.9328 17.2059C14.7139 17.577 14.1474 18.0956 13.8984 18.7668C13.7274 19.2643 13.4876 19.5429 13.3345 20.1633L13.2985 20.2202C13.2862 20.0374 13.3439 19.4679 13.3019 19.5847C12.7114 20.7791 12.2033 22.0125 11.781 23.2764C11.1028 25.5089 10.3132 28.5477 10.188 32.5009C10.1579 32.8007 10.1847 33.1363 10.1575 33.4061C8.55118 35.2425 7.45664 36.7974 7.04283 37.6034C4.96508 40.8159 2.67641 45.823 0.458055 53.7434C1.44499 51.5798 2.62518 49.51 3.98422 47.5592C2.13965 51.7632 0.356114 58.3651 0 68.5319C0.447778 66.428 1.02015 64.3526 1.71409 62.3167C1.39554 69.0961 2.18426 77.501 6.46504 86.9839C9.00677 92.5616 14.8577 103.889 29.154 112.728L29.1528 112.729C29.1528 112.729 34.0163 116.354 42.3763 119.07C42.9941 119.295 43.62 119.516 44.2587 119.73C44.0583 119.649 43.8644 119.564 43.6761 119.476C49.2406 121.145 55.018 121.996 60.8269 122C82.473 122.018 88.8571 113.315 88.8571 113.315C88.8571 113.315 88.8346 113.332 88.7937 113.362C89.0992 113.074 89.3934 112.775 89.6763 112.464C86.2611 115.693 78.4671 115.907 75.5529 115.674C80.523 114.213 83.7935 112.977 90.1551 110.538C90.8992 110.261 91.6602 109.946 92.4384 109.592C92.5225 109.555 92.6074 109.515 92.6919 109.477C92.8463 109.405 92.9991 109.337 93.1549 109.261C96.2544 107.798 99.1689 105.972 101.837 103.819C108.225 98.7098 109.615 93.7296 110.342 90.4459C110.24 90.7606 109.925 91.4944 109.703 91.9696C108.058 95.4931 104.409 97.6552 100.447 99.5095C102.332 97.0325 104.081 94.4538 105.684 91.7852C106.978 90.5018 107.382 88.4925 108.348 87.1423H108.348Z" fill="url(#paint6_radial_513_311)"/>
<path d="M101.085 99.6403C103.707 96.7492 106.063 93.4423 107.847 89.6925C112.438 80.0415 119.536 63.9944 113.946 47.2348C109.527 33.9886 103.46 26.7455 95.7577 19.67C83.2483 8.1799 79.7545 3.05036 79.7545 0C79.7545 0 65.3109 16.0982 71.575 32.8884C77.8391 49.6786 90.6685 49.0631 99.156 66.5845C109.144 87.2028 91.0751 109.702 76.133 116C77.0479 115.797 109.349 108.488 111.047 90.0156C111.008 90.3553 110.28 95.4645 101.085 99.6403Z" fill="url(#paint7_linear_513_311)"/>
<path d="M58.9974 39.851C59.047 38.7651 58.4729 38.0357 49.3201 37.1934C45.5545 36.8522 44.1125 33.4372 43.6729 32C42.334 35.4132 41.7811 38.9949 42.0783 43.3272C42.2815 46.1652 44.2248 49.2115 45.1538 51C45.1538 51 45.3602 50.7367 45.4555 50.6394C47.2048 48.8525 54.5338 46.1298 55.2224 45.7432C55.9814 45.2728 58.87 43.202 58.9974 39.851Z" fill="url(#paint8_linear_513_311)"/>
<path d="M58.9974 39.851C59.047 38.7651 58.4729 38.0357 49.3201 37.1934C45.5545 36.8522 44.1125 33.4372 43.6729 32C42.334 35.4132 41.7811 38.9949 42.0783 43.3272C42.2815 46.1652 44.2248 49.2115 45.1538 51C45.1538 51 45.3602 50.7367 45.4555 50.6394C47.2048 48.8525 54.5338 46.1298 55.2224 45.7432C55.9814 45.2728 58.87 43.202 58.9974 39.851Z" fill="url(#paint9_linear_513_311)"/>
<path d="M19.0976 19.191C18.9733 18.9661 18.9066 19.6552 18.8112 19.4335C18.1005 17.7252 17.6682 14.9567 17.7705 13C17.7705 13 16.3006 13.6943 15.0839 16.5938C14.858 17.1151 14.7131 17.4026 14.5684 17.6901C14.5018 17.774 14.7193 16.7379 14.6846 16.7943C14.4733 17.1653 13.9262 17.6837 13.6886 18.3247C13.4916 18.8489 13.289 19.1304 13.1381 19.7805C13.0917 19.9572 13.1849 18.9985 13.1443 19.1153C10.3147 24.7824 9.77463 33.3512 10.0729 32.9889C16.0967 26.3232 23 24.7423 23 24.7423C22.2655 24.1816 20.6696 22.5626 19.0977 19.191H19.0976Z" fill="url(#paint10_linear_513_311)"/>
<path d="M43.2589 89.6219C34.544 85.9137 24.6363 80.6838 25.0103 68.8026C25.5194 53.1556 39.6514 56.2482 39.6514 56.2482C39.1181 56.3777 37.6922 57.3895 37.1868 58.468C36.6528 59.8166 35.6783 62.862 38.6306 66.0539C43.2664 71.0603 29.1063 77.9317 50.9625 90.9126C51.5138 91.2115 45.8391 90.7345 43.2583 89.6224L43.2589 89.6219Z" fill="url(#paint11_linear_513_311)"/>
<path d="M39.9581 81.5964C46.0188 83.7288 53.0792 83.3548 57.3062 80.9943C60.136 79.4017 63.7663 76.8508 66 77.4805C64.066 76.7077 62.6013 76.3466 60.8393 76.2583C60.5392 76.2583 60.1796 76.2519 59.8528 76.2187C59.2074 76.2166 58.5625 76.2523 57.9212 76.3256C56.8303 76.427 55.6209 77.1229 54.5214 77.0112C54.462 77.0051 55.5879 76.5435 55.4963 76.5644C54.9138 76.6873 54.2809 76.7138 53.6122 76.7976C53.1872 76.8454 52.8217 76.8992 52.3998 76.9169C39.776 77.9992 29.1071 70 29.1071 70C28.199 73.0921 33.1727 79.208 39.9582 81.5964H39.9581Z" fill="url(#paint12_linear_513_311)"/>
<path d="M100.711 100C113.609 87.2549 120.134 71.7622 117.376 54.3857C117.376 54.3857 118.478 63.2962 114.299 72.4097C116.306 63.5124 116.54 52.4557 111.206 41.0061C104.087 25.7233 92.3789 17.6817 87.9089 14.3269C81.1363 9.24363 78.3288 4.06802 78.2782 3C76.2551 7.17201 70.1348 21.4692 77.6207 33.7819C84.6341 45.3176 95.6824 48.7416 103.417 59.3231C117.666 78.8167 100.711 100 100.711 100Z" fill="url(#paint13_linear_513_311)"/>
<path d="M99.1753 66.6748C94.6484 57.4158 88.9975 53.3772 83.6526 49C84.2744 49.8619 84.4277 50.1664 84.7719 50.7238C89.4763 55.6877 96.4135 67.7959 91.377 82.9959C81.8968 111.607 43.9755 98.1342 40 94.3495C41.6083 110.909 69.6037 118.832 87.8313 108.094C98.2035 98.3734 106.594 81.8485 99.1753 66.6748Z" fill="url(#paint14_linear_513_311)"/>
<path d="M99.8529 85.0598L99.9684 84.4586C100.007 84.2423 100.061 84.0126 100.094 83.7643C100.169 83.2688 100.264 82.7154 100.323 82.1007C100.489 80.6623 100.55 79.2136 100.505 77.7662C100.445 75.9377 100.205 74.1197 99.7895 72.3391C99.302 70.2517 98.5845 68.226 97.6504 66.2997C96.617 64.1416 95.4014 62.0774 94.0168 60.1298C93.3047 59.1088 92.5054 58.126 91.6726 57.1494C90.8283 56.1822 89.9253 55.2434 88.9817 54.3257C88.0306 53.4156 87.0371 52.5295 86.0172 51.6573C84.9974 50.785 83.9489 49.9291 82.9037 49.0578C81.8584 48.1864 80.8106 47.3064 79.7972 46.3809C78.7839 45.4554 77.8048 44.4884 76.8841 43.4686C75.9636 42.4532 75.1124 41.3761 74.3362 40.2446L74.0475 39.8218C73.9503 39.6817 73.855 39.5404 73.7677 39.394L73.2308 38.5269C73.054 38.2371 72.897 37.9361 72.7298 37.6421L72.483 37.1992C72.4023 37.0506 72.3308 36.8981 72.2544 36.748L71.8044 35.8453C71.664 35.5406 71.5312 35.2334 71.3948 34.9286C71.1115 34.3237 70.8883 33.6973 70.6422 33.0849L70.5519 32.8546L70.4733 32.6192L70.3178 32.1502C70.2158 31.8375 70.1081 31.5278 70.012 31.2158L69.7664 30.2703L69.6443 29.7996C69.6003 29.6439 69.5794 29.4833 69.546 29.3259C69.0443 26.8901 68.8872 24.3949 69.0795 21.9146C69.267 19.6697 69.6864 17.4507 70.331 15.2938C70.8879 13.4236 71.5851 11.5989 72.4166 9.83543C73.0882 8.40169 73.8327 7.00388 74.6471 5.64758C75.5687 4.10274 76.5808 2.61471 77.678 1.19142C77.9918 0.786706 78.3059 0.394506 78.618 0.0325321C78.6396 0.0117568 78.6683 0.000116055 78.6981 8.631e-07C78.728 -0.000114329 78.7567 0.0113047 78.7785 0.0319127C78.8016 0.0507992 78.8166 0.077893 78.8205 0.107619C78.8244 0.137345 78.8168 0.167442 78.7994 0.191716C78.5016 0.540063 78.1878 0.933874 77.8719 1.34379C75.7967 4.06025 74.0254 6.99977 72.5902 10.1088C71.7772 11.8687 71.0984 13.6885 70.5599 15.5526C69.9375 17.6911 69.5399 19.8898 69.3736 22.1123C69.2121 24.5562 69.3884 27.0109 69.8977 29.4057C69.9133 29.4832 69.927 29.5614 69.9442 29.6387L70.0048 29.8688L70.1262 30.3305C70.2099 30.6381 70.2827 30.9499 70.3759 31.257L70.6823 32.1737L70.8361 32.6341C70.8861 32.7882 70.953 32.9371 71.0107 33.0892L71.3712 34.0002L71.4616 34.2288L71.5619 34.4534L71.7633 34.9033L71.965 35.3543C72.0328 35.5046 72.0971 35.6568 72.1737 35.803L72.6198 36.6905C73.8581 39.0788 75.4024 41.2923 77.2131 43.274C78.1251 44.2725 79.0948 45.2213 80.0986 46.1314C81.1023 47.0415 82.1438 47.9104 83.184 48.7735C84.2242 49.6365 85.2713 50.4859 86.2924 51.355C87.3134 52.2241 88.3107 53.1087 89.2673 54.0194C90.2164 54.9381 91.1275 55.8782 91.9791 56.8494C92.8208 57.828 93.6281 58.8166 94.3488 59.8417C95.7494 61.7983 96.9809 63.8726 98.0296 66.0418L98.1265 66.2336L98.2154 66.4291L98.3919 66.8183C98.5074 67.0777 98.6292 67.3321 98.7374 67.5903L99.0459 68.3652L99.1984 68.7482C99.2464 68.8764 99.2885 69.0062 99.3335 69.1343L99.5972 69.8988C99.643 70.0244 99.681 70.152 99.7174 70.2795L99.8289 70.6594C99.9016 70.912 99.9795 71.1607 100.046 71.4102L100.227 72.156C100.659 73.9665 100.911 75.8156 100.981 77.6764C101.034 79.1556 100.977 80.6367 100.813 82.1075C100.684 83.3679 100.483 84.392 100.332 85.1618C100.021 86.6411 99.6159 88.0987 99.1189 89.5254C98.6684 90.83 98.1462 92.1083 97.5548 93.3543C96.9918 94.5328 96.4236 95.625 95.8399 96.6072L95.6275 96.9745L95.4096 97.3287L94.9857 98.0149C94.6979 98.4553 94.4252 98.8781 94.1543 99.2724C93.6119 100.061 93.1023 100.752 92.6441 101.345L91.9973 102.162L91.4364 102.828L91.1973 103.108L90.9814 103.347C90.8469 103.494 90.7327 103.618 90.6389 103.716C90.4518 103.914 90.3484 104.01 90.3356 103.999C90.3229 103.988 90.4061 103.866 90.5743 103.643C90.74 103.417 91.0032 103.099 91.3207 102.671C91.9715 101.829 92.8924 100.585 93.9398 98.9752C94.1954 98.5686 94.4678 98.1452 94.7393 97.6949C95.006 97.2419 95.2918 96.775 95.5619 96.2757C96.121 95.2875 96.6715 94.2014 97.2052 93.0334C97.3348 92.7397 97.4753 92.4462 97.6012 92.1415L97.9845 91.2176C98.2263 90.5879 98.4769 89.9447 98.6966 89.2759C99.1658 87.8953 99.5519 86.4874 99.8529 85.0598Z" fill="url(#paint15_linear_513_311)"/>
<path d="M91.3913 80.9289C91.4583 80.6741 91.5602 80.3347 91.6496 79.912C91.7418 79.49 91.8715 78.9952 91.9667 78.4265C92.0177 78.1427 92.0775 77.8431 92.1308 77.5273L92.273 76.5327L92.3105 76.2709L92.3382 76.003L92.3938 75.4527C92.4115 75.266 92.4344 75.0767 92.4489 74.8839L92.484 74.2962C92.5876 72.5658 92.5479 70.8302 92.3652 69.106L92.3309 68.7612L92.2843 68.4162L92.1885 67.7218C92.1591 67.4889 92.11 67.2583 92.0716 67.0252C92.029 66.7929 91.9933 66.5585 91.9441 66.3262L91.7949 65.6283C91.7694 65.5119 91.7464 65.3949 91.7183 65.2788L91.6311 64.9316L91.4565 64.2365L91.2582 63.5479C90.7329 61.7604 90.0559 60.0181 89.234 58.3392C88.508 56.8615 87.6701 55.4382 86.7271 54.0809C86.3097 53.472 85.8872 52.9297 85.5014 52.44C85.106 51.9572 84.7425 51.5317 84.4127 51.1773L84.1751 50.9221L84.1172 50.8602C84.1018 50.8457 84.0889 50.829 84.0789 50.8107L84.0564 50.7745L83.9743 50.6413L83.6903 50.1774C83.5223 49.9077 83.3918 49.7176 83.3173 49.6091C83.2153 49.4615 83.1133 49.3177 83.0157 49.1821C83.0006 49.1561 82.9962 49.1254 83.0033 49.0964C83.0104 49.0673 83.0285 49.0418 83.0539 49.025C83.0784 49.0062 83.1094 48.9974 83.1405 49.0006C83.1715 49.0038 83.2 49.0187 83.2198 49.0421C83.3177 49.174 83.4232 49.3192 83.5293 49.4708C83.6126 49.59 83.7526 49.7913 83.9295 50.0714L84.2242 50.5439L84.3059 50.6737C84.309 50.6788 84.3128 50.6835 84.3173 50.6876L84.3459 50.7178L84.404 50.7797L84.6494 51.0397C85.5053 51.9634 86.2956 52.9425 87.0149 53.9701C87.9735 55.3318 88.8269 56.7607 89.5678 58.2449C90.4061 59.928 91.0995 61.6756 91.6409 63.4697L91.845 64.1614L92.0264 64.8597L92.1169 65.2086L92.1957 65.5601L92.3516 66.2618C92.4015 66.4956 92.44 66.7312 92.4846 66.9651C92.5251 67.1995 92.5766 67.4316 92.6076 67.6659L92.7096 68.3651L92.7592 68.7126L92.7965 69.0598C92.9944 70.7991 93.0481 72.551 92.9571 74.2986C92.8874 75.704 92.7223 77.1034 92.4629 78.4877C92.3689 79.0671 92.2417 79.5725 92.1479 80.0048C92.0579 80.4381 91.9552 80.7881 91.8849 81.0534L91.6727 81.8333L91.4356 82.5744L91.206 83.2821C91.1256 83.5107 91.0449 83.7325 90.9637 83.9474C90.6394 84.8068 90.3076 85.5501 90.0086 86.1559C89.4079 87.3676 88.9468 88.0294 88.8896 87.999C88.8269 87.9666 89.1869 87.2238 89.6993 85.9768C89.9544 85.3528 90.2458 84.602 90.5379 83.7507C90.6105 83.5378 90.6846 83.3191 90.7565 83.094L90.968 82.4008L91.1894 81.6805L91.3913 80.9289Z" fill="url(#paint16_linear_513_311)"/>
<path d="M88.7088 45.5853C88.4218 45.3518 88.0305 45.0464 87.5655 44.6549L86.8026 44.0204C86.5288 43.7914 86.2426 43.5365 85.935 43.2712C84.4531 41.9895 83.0479 40.6203 81.7267 39.1708C80.0806 37.3527 78.6228 35.3699 77.3759 33.2534C77.2155 32.9684 77.0508 32.6839 76.8918 32.3945L76.449 31.5034L76.3378 31.2796C76.3028 31.2039 76.271 31.1266 76.2375 31.0501L76.0384 30.5892L75.8383 30.127C75.7755 29.9712 75.72 29.8122 75.6605 29.6547L75.4846 29.1806C75.4249 29.0227 75.3662 28.8644 75.3187 28.7021L75.0147 27.7338L74.7578 26.751C74.7122 26.5879 74.6771 26.4224 74.6435 26.2565L74.5392 25.76C74.2768 24.4457 74.1092 23.114 74.0377 21.7753C73.9739 20.4831 73.9911 19.1881 74.089 17.898C74.1779 16.6875 74.33 15.4826 74.5446 14.2883C74.7512 13.1445 74.998 12.0659 75.261 11.0674C75.7076 9.39604 76.2501 7.75226 76.886 6.1444C77.3836 4.89033 77.7736 4.05083 77.9274 3.71619C78.0327 3.48849 78.1383 3.26597 78.2407 3.05628C78.2562 3.03087 78.2806 3.0123 78.3091 3.00431C78.3375 2.99632 78.368 2.99951 78.3942 3.01323C78.4215 3.02509 78.4431 3.04712 78.4546 3.07471C78.4662 3.1023 78.4666 3.13331 78.456 3.16125C78.3589 3.36514 78.2546 3.58865 78.1493 3.8198C77.9843 4.18355 77.5934 5.0418 77.102 6.30512C76.4801 7.91412 75.9512 9.55809 75.5178 11.2288C74.9411 13.4448 74.571 15.7104 74.4121 17.9958C74.3272 19.2669 74.3199 20.542 74.3901 21.814C74.471 23.1277 74.6458 24.4337 74.913 25.722L75.0178 26.2081L75.0702 26.4513L75.1341 26.6917L75.392 27.6525L75.6948 28.5989C75.7419 28.7576 75.8025 28.9114 75.8608 29.0658L76.0355 29.5289C76.095 29.6826 76.1488 29.8384 76.2126 29.9897L76.4105 30.4408L76.6075 30.8905C76.6409 30.9645 76.6716 31.0409 76.7072 31.1141L76.8173 31.3325L77.255 32.2016L77.7333 33.0389C78.9709 35.1142 80.4141 37.0576 82.0406 38.8394C83.3543 40.2684 84.7502 41.6183 86.2212 42.8821C86.5283 43.1453 86.815 43.3973 87.0885 43.6265L87.8548 44.2599C88.3226 44.6515 88.7195 44.9608 89.0132 45.1995L92.2935 47.8157C93.2818 48.6101 94.1466 49.3262 94.8521 49.9373L95.7904 50.7659C96.0595 51.0142 96.2858 51.2318 96.4687 51.4097C96.8339 51.7664 97.0207 51.9718 96.9982 51.9974C96.9757 52.0231 96.7413 51.857 96.3293 51.5375L94.5886 50.1663L91.9632 48.1311C90.9671 47.3614 89.8621 46.5122 88.7088 45.5853Z" fill="url(#paint17_linear_513_311)"/>
<path d="M113.843 49.5814C113.781 49.3509 113.717 49.0789 113.631 48.7731C113.542 48.4682 113.448 48.1249 113.334 47.7505L113.149 47.1659C113.085 46.9622 113.018 46.7513 112.94 46.536L112.454 45.1482L112.187 44.3898L111.881 43.5994L111.56 42.7711C111.448 42.4898 111.346 42.1976 111.217 41.9094L110.444 40.1028C110.164 39.4853 109.86 38.8554 109.556 38.2031L109.441 37.9582L109.316 37.716L109.064 37.227L108.55 36.2312C108.466 36.062 108.372 35.8968 108.277 35.7309L107.995 35.2293L107.42 34.2114L106.798 33.1976L106.483 32.6847C106.429 32.5992 106.378 32.5118 106.323 32.4274L106.154 32.1748C105.701 31.502 105.259 30.8069 104.761 30.1404C104.516 29.8043 104.276 29.4624 104.025 29.1261L103.249 28.1277C103.119 27.9614 102.992 27.7919 102.858 27.6272L102.45 27.1371L101.63 26.1547L100.779 25.1932C100.635 25.0337 100.497 24.8703 100.349 24.7134L99.9093 24.2441C99.6151 23.932 99.3245 23.6152 99.0266 23.3069L98.1243 22.391C97.8263 22.0831 97.5175 21.787 97.2112 21.4894C96.9049 21.1918 96.6012 20.8928 96.2917 20.6013L94.4413 18.8748C93.2153 17.7385 92.0176 16.6122 90.8716 15.5048C88.579 13.2906 86.4834 11.1588 84.7381 9.20706C82.9902 7.25907 81.6048 5.47818 80.7098 4.02518C80.3309 3.42441 80.0018 2.7932 79.7258 2.13796C79.5704 1.77086 79.4475 1.39064 79.3586 1.00174C79.2889 0.706909 79.2491 0.405709 79.2398 0.102776C79.2348 0.0735418 79.2196 0.0470849 79.1969 0.0282408C79.1741 0.00939677 79.1454 -0.000575835 79.116 0.000145862C79.1012 -0.000619389 79.0864 0.00163217 79.0724 0.00676596C79.0585 0.0118998 79.0457 0.0198104 79.0349 0.0300249C79.0241 0.0402394 79.0154 0.0525481 79.0094 0.0662152C79.0034 0.0798822 79.0002 0.0946271 79 0.109568C79.0075 0.428442 79.0475 0.745694 79.1194 1.05633C79.2137 1.47694 79.3458 1.88801 79.5142 2.28443C79.8005 2.9633 80.1423 3.6171 80.5358 4.23909C81.0661 5.08463 81.6398 5.90171 82.2546 6.68701C82.9379 7.56745 83.7259 8.50545 84.5988 9.48765C86.3449 11.4524 88.4327 13.5912 90.7116 15.8101C91.8506 16.9202 93.0397 18.048 94.2577 19.1856L96.0879 20.9089L96.9943 21.7942C97.2974 22.0896 97.6005 22.3861 97.8945 22.6922L98.7849 23.6034L99.6542 24.5354L100.088 25.002C100.23 25.159 100.368 25.3202 100.509 25.479L101.347 26.4333L102.152 27.4082L102.553 27.8942C102.684 28.0581 102.809 28.2255 102.937 28.3905L103.699 29.3799C103.946 29.7134 104.182 30.0516 104.423 30.3847C104.912 31.0448 105.345 31.7331 105.791 32.3992C106.018 32.7295 106.214 33.0763 106.423 33.4119L107.034 34.4153L107.598 35.4232C107.781 35.7575 107.975 36.082 108.144 36.4149L108.648 37.4016L108.896 37.8862C108.979 38.0468 109.06 38.206 109.133 38.3679C110.211 40.6126 111.164 42.9161 111.987 45.2678L112.468 46.6541L112.579 46.9728L112.676 47.2816L112.86 47.8643C112.974 48.2374 113.066 48.5806 113.155 48.887C113.242 49.1936 113.306 49.4674 113.368 49.7021L113.458 50.0521L113.538 50.4012L113.696 51.0901C113.785 51.5481 113.888 51.9943 113.961 52.4363L114.077 53.09L114.176 53.731C114.245 54.1523 114.29 54.5663 114.344 54.9672C114.54 56.574 114.618 58.006 114.656 59.1961C114.719 61.578 114.632 62.9943 114.711 63C114.742 63.0023 114.798 62.6381 114.866 61.97C114.924 61.3015 114.992 60.3283 115 59.1144C115.016 55.9002 114.627 52.697 113.843 49.5814Z" fill="url(#paint18_linear_513_311)"/>
<path d="M71.2075 88.6259C71.3811 88.5627 71.574 88.4645 71.7995 88.3657L72.5502 88.0247L73.4312 87.5733L73.6732 87.4495L73.9175 87.3093L74.4288 87.0148C74.7848 86.8207 75.1402 86.5804 75.5201 86.3397C75.9049 86.1057 76.2801 85.819 76.6825 85.5381C76.8855 85.3999 77.0807 85.2436 77.281 85.0856L77.8929 84.6051L78.5019 84.0803C78.7077 83.9022 78.9191 83.7244 79.1181 83.527L79.7345 82.9398C79.9404 82.7395 80.1358 82.5234 80.3406 82.3123L80.6471 81.9912C80.7499 81.8837 80.844 81.7671 80.9436 81.6547L81.5401 80.9665C82.3382 79.9854 83.0734 78.9542 83.7411 77.8792C84.4226 76.7477 85.0274 75.5713 85.5516 74.3581C86.0669 73.1172 86.4955 71.8418 86.8343 70.541C87.1563 69.2473 87.388 67.9325 87.5276 66.6063C87.5775 65.95 87.642 65.2999 87.6459 64.6548C87.6739 64.0102 87.6589 63.372 87.6421 62.7442C87.5977 61.5332 87.478 60.3262 87.2837 59.1303C87.1989 58.5557 87.0785 58.0018 86.968 57.4628L86.7783 56.6719C86.7192 56.4114 86.639 56.1611 86.5723 55.9118L86.4689 55.5422C86.4341 55.4204 86.3928 55.3017 86.3556 55.183L86.1315 54.4866L85.8918 53.8278L85.7755 53.5096L85.6507 53.2036L85.4106 52.6145C85.3293 52.4251 85.2437 52.244 85.1643 52.0668C85.0829 51.8905 85.0092 51.7172 84.9284 51.5545L84.6927 51.0845C84.2953 50.2974 83.8579 49.5314 83.3824 48.7894L82.9801 48.1789C82.9691 48.1569 82.9649 48.1321 82.9681 48.1078C82.9713 48.0834 82.9817 48.0605 82.998 48.0422L83.0511 48.0226C83.0418 48.0257 83.0322 48.0277 83.0224 48.0285C83.0123 48.0297 83.0021 48.0297 82.992 48.0285L83.0471 48.0083C83.0695 47.9991 83.0943 47.9975 83.1178 48.0037C83.1412 48.0099 83.162 48.0236 83.177 48.0428L83.5876 48.6564C84.085 49.4227 84.5417 50.2149 84.9558 51.0296C85.7536 52.5923 86.3966 54.23 86.8754 55.919C87.0271 56.4183 87.1467 56.9447 87.2798 57.484L87.4508 58.3115C87.4815 58.4509 87.5072 58.5923 87.5298 58.7352L87.6023 59.1655C87.7993 60.3701 87.9238 61.5856 87.9751 62.8053C87.9823 63.1216 87.9895 63.4401 87.9967 63.7609C88.0027 63.9213 87.9995 64.0824 87.9949 64.244C87.9902 64.4057 87.9877 64.5677 87.984 64.7303C87.984 65.3808 87.9163 66.0368 87.8724 66.6992C87.6112 69.3934 86.949 72.0329 85.908 74.5297C84.8958 76.9461 83.5415 79.203 81.8869 81.2303L81.2874 81.9305C81.1874 82.0452 81.0919 82.1626 80.9895 82.2735L80.6808 82.6002C80.4749 82.8156 80.2765 83.034 80.0707 83.2401L79.4489 83.8383C79.3455 83.9356 79.2471 84.037 79.1416 84.129L78.8276 84.4036L78.2131 84.9403L77.5941 85.4312C77.3905 85.5908 77.195 85.7542 76.9892 85.8953L76.3931 86.3229C76.2953 86.392 76.2004 86.4633 76.103 86.5286L75.8111 86.7175C75.4244 86.963 75.0648 87.2129 74.7022 87.4121L74.181 87.7142L73.9322 87.8584C73.8498 87.9043 73.7664 87.9451 73.6858 87.9874L72.7835 88.4532C72.5025 88.5869 72.2421 88.7014 72.011 88.8078C71.7781 88.9103 71.5773 89.0128 71.3958 89.079C70.0802 89.6289 68.7205 90.0654 67.3314 90.3838C67.0166 90.4528 66.7116 90.5226 66.4152 90.5836L65.5492 90.7265L65.1397 90.7929L64.7439 90.8373L64.0035 90.9159C63.7691 90.9452 63.5445 90.9511 63.3334 90.962L62.7387 90.9885C62.369 91.011 62.0515 90.9946 61.794 90.9885C61.2786 90.9722 61 90.9469 61 90.9129C61 90.8813 61.2882 90.8427 61.811 90.8004C62.0724 90.7787 62.3929 90.7636 62.7639 90.7145L63.359 90.6499L63.6843 90.616C63.7956 90.6038 63.9091 90.5827 64.0264 90.5658C64.4922 90.4898 65.0071 90.4339 65.552 90.3144L66.4003 90.1474L67.2935 89.9292C68.628 89.5909 69.9361 89.1553 71.2075 88.6259Z" fill="url(#paint19_linear_513_311)"/>
<path d="M42.8979 32.9823C43.0171 32.6429 43.1659 32.2422 43.3404 31.7814C43.5338 31.3282 43.7349 30.8069 44.0123 30.2496C44.6518 28.8971 45.4393 27.6209 46.3601 26.4448C47.571 24.8865 49.0177 23.5302 50.647 22.4255C50.8737 22.2707 51.1104 22.1244 51.3526 21.9794L51.5361 21.8726L51.6022 21.8346L51.6261 21.8222L51.6656 21.801L51.6773 21.7954C51.6923 21.7912 51.6773 21.7894 51.6703 21.787L51.658 21.7837L51.6069 21.7721C51.3283 21.7126 51.0443 21.6618 50.7549 21.6198C49.5462 21.4419 48.3207 21.4094 47.1043 21.5232C45.9964 21.6274 44.9049 21.8659 43.8537 22.2337C43.2741 22.4387 42.7103 22.6867 42.167 22.9755C41.6061 23.2758 41.0294 23.6024 40.448 23.939C39.8671 24.2784 39.2767 24.6317 38.6926 25.0141C38.5451 25.1081 38.3998 25.2056 38.2552 25.3054C38.1088 25.403 37.965 25.5048 37.8223 25.6087C37.5341 25.8122 37.2578 26.0322 36.9947 26.2676C36.9332 26.3274 36.8666 26.3864 36.8122 26.4483L36.7696 26.4943L36.7213 26.5527C36.7097 26.571 36.6906 26.5804 36.6844 26.6049C36.6789 26.6058 36.6676 26.6005 36.6639 26.6027L36.6522 26.6089L36.6288 26.6213L36.544 26.6674C36.5191 26.6807 36.4929 26.6915 36.4659 26.6996C36.4321 26.7083 36.3968 26.7403 36.3598 26.7139L36.1736 26.6446L35.9167 26.5529C35.5725 26.4312 35.2222 26.3196 34.8694 26.2092C34.1626 25.9916 33.4409 25.7989 32.7044 25.6311L32.6069 25.6084L32.5023 25.5836C31.3058 25.3159 30.0902 25.1434 28.8669 25.0679C27.6224 25.016 26.3762 25.1089 25.1528 25.3448C24.5341 25.4525 23.9186 25.5897 23.3071 25.7441C22.695 25.8963 22.0889 26.0756 21.488 26.2688C20.2888 26.6563 19.1157 27.1212 17.9759 27.6608C15.7388 28.7023 13.6616 30.062 11.8078 31.6985C10.9251 32.4837 10.1072 33.34 9.36221 34.2588C9.1739 34.4788 9.0076 34.7142 8.83367 34.9412C8.65691 35.1658 8.50093 35.4061 8.3393 35.6392L7.86103 36.3368C7.70308 36.5681 7.54144 36.7948 7.40033 37.0323L6.53832 38.4185L5.75878 39.7933C5.62787 40.0164 5.51098 40.2448 5.39433 40.4704L5.04648 41.1396C4.93315 41.3611 4.81478 41.5771 4.70919 41.7965L4.39723 42.4481C3.97575 43.302 3.6199 44.1375 3.27352 44.9206C2.94829 45.713 2.63681 46.4559 2.37746 47.1577C2.10348 47.854 1.88321 48.5086 1.66971 49.0983C1.4739 49.6939 1.28719 50.2254 1.14497 50.6978L0.940317 51.353L0.777944 51.9064C0.678627 52.2387 0.607704 52.4997 0.558046 52.6809C0.439308 53.1048 0.332124 53.5237 0.235635 53.9203C0.225683 53.9484 0.205705 53.9718 0.179595 53.9858C0.153484 53.9999 0.123114 54.0037 0.0944034 53.9964C0.0648397 53.9912 0.0385063 53.9744 0.0211116 53.9497C0.00371696 53.9251 -0.00333723 53.8945 0.00147823 53.8646C0.0945263 53.4736 0.200603 53.0491 0.321062 52.6151C0.374531 52.4168 0.449756 52.1395 0.552146 51.7926L0.719804 51.2184L0.928025 50.544C1.00079 50.3019 1.08462 50.0454 1.17509 49.7737C1.26555 49.502 1.3575 49.2135 1.46124 48.9125C1.67376 48.3123 1.90005 47.6502 2.17416 46.9457C2.43412 46.2356 2.74928 45.4867 3.07526 44.6881L3.60995 43.4692C3.69919 43.2595 3.7969 43.0503 3.89843 42.8399L4.20278 42.1989L4.51498 41.5433L4.85509 40.8837L5.20234 40.2104C5.26158 40.0975 5.31775 39.9822 5.38032 39.8697L5.57059 39.5315C5.82737 39.0796 6.08045 38.6143 6.35333 38.1508L7.21375 36.7553C7.28455 36.636 7.36321 36.5211 7.44237 36.406L7.67899 36.0583L8.15701 35.356L8.39842 35.0014L8.65728 34.6544L8.91848 34.3059C9.00735 34.1907 9.10199 34.0795 9.19394 33.9656C9.94872 33.0391 10.7763 32.1754 11.6686 31.3829C12.5901 30.565 13.5701 29.8166 14.6007 29.144C15.6549 28.4593 16.7533 27.8466 17.8886 27.3097C20.1881 26.2166 22.6182 25.428 25.1184 24.9638C25.7435 24.8523 26.3722 24.7635 27.0037 24.7096C27.1616 24.6955 27.3195 24.6832 27.4782 24.6765C27.6363 24.6662 27.7951 24.6614 27.9539 24.6597C28.2712 24.6543 28.5857 24.6696 28.9003 24.6758C30.1405 24.7486 31.3731 24.9193 32.5868 25.1865L32.6929 25.2113L32.7919 25.234C33.5362 25.4005 34.2666 25.5933 34.9831 25.8125C35.3404 25.9232 35.6952 26.0356 36.0449 26.1575L36.3067 26.25L36.3828 26.2774C36.3963 26.2815 36.399 26.2852 36.4054 26.2838C36.4089 26.2775 36.413 26.2716 36.4177 26.2661L36.452 26.2237L36.5022 26.1691C36.5687 26.0937 36.6387 26.0315 36.7071 25.9637C36.9811 25.7166 37.2688 25.4855 37.569 25.2716C37.7153 25.1648 37.8618 25.06 38.0102 24.9603C38.1577 24.8586 38.3052 24.7584 38.4537 24.6629C39.0449 24.273 39.6387 23.9156 40.2229 23.5715C40.8096 23.2297 41.382 22.9034 41.9543 22.5942C42.5157 22.2928 43.0985 22.0339 43.6979 21.8197C44.785 21.4346 45.9144 21.1836 47.0613 21.072C48.3054 20.9526 49.5591 20.9818 50.7965 21.1588C51.093 21.2007 51.385 21.2516 51.6725 21.3116C51.715 21.3206 51.8902 21.3576 52.0148 21.3889C52.1455 21.4226 52.2812 21.4545 52.4001 21.4917L52.7603 21.5999L52.9389 21.6545L52.9758 21.6669L52.9951 21.6734C53.0011 21.6743 53.0021 21.676 52.9951 21.6782L52.9819 21.6841L52.8769 21.7317L52.462 21.921L52.3591 21.9681C52.3243 21.9838 52.2893 21.9997 52.2647 22.0136L52.101 22.1003L51.9378 22.1864L51.8563 22.2294L51.8171 22.2503L51.7951 22.2627L51.6192 22.3655C51.5014 22.4322 51.388 22.5054 51.2743 22.5762C51.1606 22.647 51.0485 22.7194 50.9389 22.7945C49.3549 23.8684 47.9481 25.1866 46.77 26.7009C45.8686 27.8521 45.0973 29.1011 44.4703 30.4247C44.1979 30.9745 43.9961 31.4905 43.8055 31.9419C43.6309 32.4004 43.4836 32.802 43.363 33.144C42.9494 34.3585 42.6175 35.5996 42.3694 36.8591C42.1357 38.0083 41.9839 39.1729 41.9153 40.344C41.8518 41.3816 41.8896 42.4231 42.0281 43.4533L42.0862 43.8063C42.1042 43.923 42.1231 44.0384 42.1527 44.1516C42.2066 44.3783 42.2511 44.6021 42.3144 44.8172C42.3735 45.0331 42.4279 45.2454 42.4942 45.4493C42.5576 45.654 42.6171 45.8549 42.6851 46.0476C43.1009 47.2588 43.5842 48.4454 44.1324 49.6018C44.5124 50.4149 44.7316 50.8504 44.7017 50.8682C44.6749 50.8841 44.3904 50.4631 43.9467 49.6521C43.3174 48.4977 42.7747 47.2974 42.323 46.0614C42.1812 45.6664 42.0443 45.2472 41.9173 44.8037C41.8534 44.5822 41.8009 44.3519 41.7406 44.1191C41.6927 43.8825 41.6506 43.639 41.6045 43.392C41.4562 42.3349 41.4114 41.2656 41.4709 40.1996C41.5303 39.0182 41.6777 37.843 41.9119 36.684C42.1569 35.4289 42.4863 34.1922 42.8979 32.9823Z" fill="url(#paint20_linear_513_311)"/>
<g style="mix-blend-mode:overlay" opacity="0.25">
<g style="mix-blend-mode:overlay" opacity="0.25">
<path d="M112.739 81.4281L113.11 80.6426L113.628 79.4956L114.247 78.0337L114.575 77.197C114.688 76.908 114.81 76.611 114.917 76.3007C115.138 75.6815 115.38 75.0315 115.592 74.3452C115.699 74.0026 115.822 73.6575 115.921 73.3007L116.229 72.2178C116.339 71.8541 116.418 71.4792 116.512 71.1045L116.648 70.5397C116.695 70.3511 116.741 70.1617 116.775 69.9697L117.002 68.8179L117.058 68.5292L117.103 68.2385L117.192 67.6578C117.325 66.8857 117.394 66.1089 117.484 65.3479C117.541 64.584 117.61 63.8336 117.629 63.1037C117.689 61.645 117.674 60.2735 117.6 59.0745C117.524 57.5574 117.347 56.0466 117.068 54.5513C117.041 54.4077 117.012 54.2677 116.983 54.1354C116.98 54.1056 116.989 54.0757 117.007 54.0515C117.026 54.0274 117.053 54.0106 117.084 54.0045C117.099 54.0003 117.115 53.999 117.13 54.0007C117.146 54.0024 117.161 54.0071 117.175 54.0144C117.189 54.0218 117.201 54.0316 117.211 54.0435C117.221 54.0553 117.228 54.0689 117.233 54.0834C117.263 54.2142 117.295 54.3577 117.324 54.5044C117.623 56.0257 117.82 57.564 117.911 59.1096C117.928 59.4115 117.954 59.7234 117.964 60.0447C117.973 60.366 117.984 60.6975 117.995 61.0365C117.998 61.7147 118.011 62.4256 117.978 63.1582C117.966 63.8915 117.903 64.6451 117.854 65.4123C117.77 66.1769 117.708 66.957 117.582 67.7333L117.498 68.3173L117.456 68.6096L117.402 68.9L117.186 70.0595C117.153 70.2527 117.108 70.4431 117.063 70.633L116.932 71.2015C116.842 71.5787 116.766 71.9564 116.658 72.3224L116.36 73.4128C116.313 73.5929 116.257 73.7691 116.202 73.944L116.039 74.4648L115.879 74.976L115.8 75.2281L115.714 75.4751L115.379 76.4351C114.748 78.2017 114.025 79.9369 113.213 81.6342C111.661 84.8997 110.13 87.0747 110.006 86.998C109.896 86.934 111.244 84.5804 112.739 81.4281Z" fill="white"/>
</g>
</g>
<g style="mix-blend-mode:overlay" opacity="0.25">
<g style="mix-blend-mode:overlay" opacity="0.25">
<path d="M96.4774 107.404C97.1038 107.039 98.5951 106.172 100.393 104.914L101.084 104.428L101.792 103.903L102.156 103.633L102.517 103.348L103.255 102.766L103.988 102.149C104.236 101.941 104.485 101.733 104.72 101.513C104.964 101.299 105.19 101.066 105.423 100.84C105.645 100.603 105.875 100.372 106.085 100.126C106.512 99.6447 106.912 99.1412 107.283 98.6174C107.645 98.1131 107.98 97.5913 108.288 97.0539C108.843 96.0906 109.318 95.0858 109.71 94.0491C110.159 92.8785 110.492 91.6686 110.704 90.4361C110.723 90.3178 110.742 90.2014 110.756 90.0917C110.763 90.0631 110.78 90.038 110.805 90.0213C110.83 90.0046 110.86 89.9973 110.89 90.0009C110.905 90.0017 110.92 90.0054 110.934 90.0118C110.948 90.0182 110.96 90.0272 110.97 90.0382C110.98 90.0493 110.988 90.0623 110.993 90.0763C110.998 90.0904 111.001 90.1053 111 90.1202C110.987 90.2306 110.971 90.3504 110.952 90.4735C110.75 91.74 110.423 92.9843 109.974 94.1889C109.588 95.2426 109.117 96.2646 108.565 97.2452C108.259 97.793 107.924 98.3253 107.563 98.8401C107.192 99.3751 106.792 99.89 106.364 100.383C106.153 100.636 105.922 100.872 105.699 101.115C105.465 101.348 105.237 101.587 104.992 101.807C104.753 102.035 104.506 102.246 104.261 102.457L103.53 103.085L102.796 103.677L102.436 103.968L102.074 104.243L101.367 104.778C101.135 104.95 100.903 105.113 100.679 105.274C98.8827 106.558 97.3845 107.447 96.7348 107.826C94.1313 109.346 92.0548 110.115 92.0009 109.986C91.9758 109.928 92.4692 109.653 93.2811 109.204C94.093 108.756 95.2228 108.136 96.4774 107.404Z" fill="white"/>
</g>
</g>
<g style="mix-blend-mode:overlay" opacity="0.25">
<g style="mix-blend-mode:overlay" opacity="0.25">
<path d="M63.9256 121.475L64.7553 121.442L65.9563 121.369C66.8683 121.307 67.9898 121.213 69.2415 121.063C69.3981 121.045 69.5574 121.03 69.7174 121.008L70.2034 120.938L71.2073 120.795C71.5487 120.747 71.8922 120.676 72.2426 120.617C72.5924 120.553 72.9489 120.496 73.3059 120.423L74.3839 120.188L74.9294 120.069C75.1112 120.027 75.2909 119.975 75.4724 119.929L76.563 119.641C76.6539 119.617 76.7458 119.595 76.8357 119.567L77.1047 119.482L77.6426 119.312C78 119.195 78.3602 119.09 78.7125 118.966L79.7593 118.584L80.2762 118.395L80.7815 118.192L81.7723 117.792C82.9605 117.29 84.1183 116.721 85.2399 116.087C86.0775 115.616 86.866 115.065 87.5939 114.442C87.9621 114.129 88.2916 113.775 88.5756 113.386C88.6125 113.33 88.6506 113.275 88.685 113.22C88.7147 113.164 88.7501 113.109 88.774 113.055C88.7902 113.032 88.8138 113.015 88.841 113.006C88.8681 112.998 88.8974 112.998 88.9243 113.007C88.9925 113.025 89.0115 113.085 88.9937 113.153C88.9664 113.217 88.9304 113.275 88.8971 113.339C88.8601 113.4 88.8198 113.46 88.7799 113.522C88.4805 113.941 88.1311 114.322 87.7394 114.659C86.9989 115.3 86.1976 115.87 85.3466 116.361C84.221 117.007 83.0593 117.591 81.8671 118.109L80.8767 118.519L80.372 118.728L79.8558 118.922L78.8111 119.314C78.4583 119.44 78.0973 119.552 77.7388 119.671L77.1996 119.848L76.9298 119.937C76.8392 119.964 76.7475 119.988 76.6565 120.013L75.5636 120.313C75.3817 120.361 75.2015 120.415 75.0192 120.458L74.4729 120.583L73.3924 120.829C73.035 120.905 72.6775 120.965 72.3269 121.033C71.9754 121.096 71.6307 121.17 71.2885 121.221L70.2817 121.374C69.953 121.425 69.6315 121.475 69.3165 121.509C68.0594 121.67 66.9316 121.774 66.0112 121.844L64.795 121.925L63.9459 121.961C60.4949 122.103 57.9871 121.82 58 121.683C58.0088 121.562 60.5937 121.615 63.9256 121.475Z" fill="white"/>
</g>
</g>
<path d="M19.1119 20.0874L18.8765 19.7036C18.7942 19.5441 18.6885 19.3653 18.5906 19.1538C18.3516 18.6298 18.1626 18.0849 18.0259 17.5262C17.8351 16.7463 17.7115 15.9519 17.6562 15.1514C17.6389 14.9216 17.6264 14.6839 17.6188 14.4381C17.6174 14.3766 17.6159 14.3145 17.6143 14.252L17.6136 14.2122V14.2053L17.6149 14.1748C17.6151 14.1722 17.6151 14.1695 17.6149 14.1669L17.6098 14.1719L17.599 14.1825L17.5875 14.1947C17.5803 14.2024 17.5958 14.1844 17.5323 14.2553C17.3486 14.4587 17.1637 14.6711 16.9739 14.8908C16.4745 15.4692 15.9413 16.1216 15.4018 16.8302C14.8623 17.5388 14.3182 18.3036 13.8067 19.1114C13.5443 19.5114 13.3068 19.9314 13.0637 20.3494L12.7236 20.9895C12.6648 21.0952 12.6133 21.2044 12.5631 21.3138L12.4095 21.641C12.0195 22.5009 11.6975 23.3893 11.4463 24.2984C11.1966 25.1804 10.9984 26.0374 10.8426 26.834C10.6916 27.6316 10.5775 28.3674 10.493 29.0099C10.3296 30.2956 10.2746 31.2038 10.2589 31.493L10.2393 31.8991C10.2351 31.9279 10.2203 31.9542 10.1976 31.9728C10.175 31.9914 10.1462 32.0011 10.1168 31.9999C10.0868 32.0008 10.0578 31.9899 10.0359 31.9697C10.014 31.9495 10.0011 31.9215 10 31.8919C10.0026 31.7637 10.0083 31.6244 10.0145 31.4809C10.0292 31.1625 10.0757 30.2341 10.2301 28.933C10.308 28.2826 10.4177 27.5398 10.5625 26.735C10.7101 25.9306 10.9037 25.0661 11.1473 24.1744C11.3925 23.2502 11.7111 22.3465 12.1 21.472L12.2525 21.1383L12.3288 20.9712L12.413 20.8082L12.7505 20.1562C12.9926 19.732 13.2284 19.3045 13.4888 18.8983C13.9971 18.078 14.5348 17.2997 15.0725 16.5822C15.6101 15.8646 16.1384 15.2004 16.6366 14.6099C16.8258 14.3884 17.0105 14.1736 17.1937 13.9675L17.2773 13.8738L17.4075 13.7319L17.6658 13.4505L17.9196 13.1801L18.0463 13.0457L18.0767 13.0142L18.0909 13C18.0915 13.0073 18.0915 13.0147 18.0909 13.0221L18.0875 13.1205C18.0799 13.3808 18.0651 13.651 18.0684 13.8882C18.0684 13.9492 18.0684 14.0098 18.0684 14.0701V14.1606L18.07 14.2294C18.0719 14.2898 18.0737 14.3497 18.0755 14.4092C18.0843 14.647 18.0976 14.8773 18.1154 15.1001C18.1727 15.8723 18.2956 16.6383 18.483 17.39C18.6146 17.9211 18.7962 18.4389 19.0254 18.9365C19.0665 19.039 19.1217 19.1262 19.1661 19.2123L19.295 19.452L19.5278 19.8316C19.9775 20.5474 20.4459 21.1892 20.8707 21.7589C21.2974 22.3286 21.687 22.8255 22.0109 23.2376C22.6603 24.0619 23.0458 24.5541 22.9956 24.6005C22.9499 24.6431 22.4565 24.214 21.7264 23.431C21.3619 23.0391 20.9389 22.5583 20.4889 21.9989C19.9937 21.388 19.534 20.7498 19.1119 20.0874Z" fill="url(#paint21_linear_513_311)"/>
<path d="M25.3463 72.7357C25.3036 72.539 25.2657 72.2706 25.2096 71.9446C25.1794 71.782 25.1579 71.6027 25.1367 71.409L25.0644 70.789C24.9751 69.726 24.9787 68.6569 25.0752 67.5945C25.1897 66.2716 25.4386 64.9648 25.8179 63.6958C26.0259 63.0073 26.2916 62.3389 26.6119 61.6981C27.265 60.3952 28.1825 59.2534 29.3017 58.3506L29.7147 58.0285C29.8524 57.923 29.998 57.8308 30.1381 57.7323L30.3491 57.5874C30.4201 57.5408 30.4938 57.4989 30.5651 57.4545L30.994 57.1943C32.0737 56.6087 33.2496 56.2362 34.4615 56.0961C35.3607 55.9905 36.2676 55.9719 37.1702 56.0404C37.8735 56.093 38.3514 56.1735 38.542 56.2048C38.6717 56.2279 38.7985 56.2504 38.9191 56.2769C38.9465 56.2865 38.9696 56.306 38.9841 56.3319C38.9985 56.3578 39.0034 56.3882 38.9977 56.4175C38.992 56.4468 38.9761 56.473 38.9531 56.4911C38.9301 56.5092 38.9015 56.518 38.8727 56.5158C38.7591 56.493 38.633 56.4722 38.5037 56.4508C38.2999 56.4192 37.8167 56.3447 37.1176 56.3021C36.2282 56.2467 35.3358 56.2774 34.452 56.3938C33.2842 56.5477 32.1544 56.9252 31.1204 57.5068C30.8478 57.6802 30.5622 57.8424 30.2954 58.0405C30.1613 58.1381 30.0192 58.2266 29.8896 58.3333L29.4941 58.6486C28.4323 59.5288 27.5659 60.6346 26.9537 61.891C26.6525 62.5113 26.4036 63.1572 26.2099 63.8217C25.853 65.0603 25.6225 66.3341 25.522 67.6223C25.4364 68.6542 25.4402 69.6919 25.5334 70.723L25.607 71.3282C25.6295 71.5172 25.65 71.6931 25.6808 71.8529C25.7377 72.1731 25.7759 72.4383 25.8184 72.6356C25.9768 73.427 26.1631 74.1553 26.3487 74.8041C26.5422 75.4497 26.7242 76.0188 26.8939 76.4849C27.2227 77.4223 27.4563 77.9637 27.396 77.9986C27.3438 78.0303 26.9895 77.5182 26.5699 76.5892C26.3224 76.0419 26.1042 75.4809 25.9164 74.9088C25.813 74.5825 25.7023 74.2391 25.611 73.8742C25.5088 73.5131 25.4313 73.1288 25.3463 72.7357Z" fill="url(#paint22_linear_513_311)"/>
<defs>
<linearGradient id="paint0_linear_513_311" x1="91.169" y1="42.6122" x2="115.857" y2="43.7037" gradientUnits="userSpaceOnUse">
<stop stop-color="#0083FF"/>
<stop offset="0.176" stop-color="#0096F6"/>
<stop offset="0.508" stop-color="#00B3E6"/>
<stop offset="0.794" stop-color="#00C6DD"/>
<stop offset="0.999" stop-color="#00CCDA"/>
</linearGradient>
<linearGradient id="paint1_linear_513_311" x1="67.3534" y1="89.9993" x2="43.814" y2="12.6277" gradientUnits="userSpaceOnUse">
<stop stop-color="#000F40" stop-opacity="0.6"/>
<stop offset="0.611" stop-color="#000F40" stop-opacity="0.182"/>
<stop offset="1" stop-color="#000F40" stop-opacity="0"/>
</linearGradient>
<linearGradient id="paint2_linear_513_311" x1="67.3536" y1="89.9993" x2="43.814" y2="12.6277" gradientUnits="userSpaceOnUse">
<stop stop-color="#000F43" stop-opacity="0.4"/>
<stop offset="0.485" stop-color="#001962" stop-opacity="0.173"/>
<stop offset="1" stop-color="#002079" stop-opacity="0"/>
</linearGradient>
<linearGradient id="paint3_linear_513_311" x1="116.716" y1="98.7553" x2="99.1332" y2="95.5986" gradientUnits="userSpaceOnUse">
<stop stop-color="#002275"/>
<stop offset="1" stop-color="#005FE7"/>
</linearGradient>
<linearGradient id="paint4_linear_513_311" x1="106.142" y1="72.3608" x2="124.431" y2="57.0019" gradientUnits="userSpaceOnUse">
<stop offset="0.049" stop-color="#005FE7"/>
<stop offset="0.187" stop-color="#005CE1"/>
<stop offset="0.378" stop-color="#0052CF"/>
<stop offset="0.599" stop-color="#0043B2"/>
<stop offset="0.84" stop-color="#002D8A"/>
<stop offset="0.951" stop-color="#002275"/>
</linearGradient>
<linearGradient id="paint5_linear_513_311" x1="71.6695" y1="109.598" x2="106.708" y2="113.338" gradientUnits="userSpaceOnUse">
<stop stop-color="#002079"/>
<stop offset="0.995" stop-color="#000F40"/>
</linearGradient>
<radialGradient id="paint6_radial_513_311" cx="0" cy="0" r="1" gradientUnits="userSpaceOnUse" gradientTransform="translate(72.1747 47.9187) scale(92.8675 92.9776)">
<stop offset="0.156" stop-color="#58C1FF"/>
<stop offset="0.241" stop-color="#4CB8FF"/>
<stop offset="0.394" stop-color="#2EA0FF"/>
<stop offset="0.541" stop-color="#0A84FF"/>
<stop offset="0.763" stop-color="#0060DF"/>
<stop offset="0.798" stop-color="#0067DE"/>
<stop offset="0.85" stop-color="#007BDD"/>
<stop offset="0.913" stop-color="#009CDA"/>
<stop offset="0.982" stop-color="#00C8D7"/>
</radialGradient>
<linearGradient id="paint7_linear_513_311" x1="97.9573" y1="-8.54591" x2="87.1352" y2="113.118" gradientUnits="userSpaceOnUse">
<stop stop-color="#00FEFF"/>
<stop offset="0.298" stop-color="#04C9FF"/>
<stop offset="0.613" stop-color="#0897FF"/>
<stop offset="0.769" stop-color="#0A84FF"/>
<stop offset="0.791" stop-color="#0A84FF" stop-opacity="0.934"/>
<stop offset="0.837" stop-color="#0A84FF" stop-opacity="0.763"/>
<stop offset="0.9" stop-color="#0A84FF" stop-opacity="0.487"/>
<stop offset="0.978" stop-color="#0A84FF" stop-opacity="0.111"/>
<stop offset="1" stop-color="#0A84FF" stop-opacity="0"/>
</linearGradient>
<linearGradient id="paint8_linear_513_311" x1="36.5612" y1="39.9004" x2="57.5469" y2="42.0586" gradientUnits="userSpaceOnUse">
<stop stop-color="#003EAA"/>
<stop offset="0.296" stop-color="#0054C5" stop-opacity="0.683"/>
<stop offset="0.779" stop-color="#0076EF" stop-opacity="0.194"/>
<stop offset="1" stop-color="#0083FF" stop-opacity="0"/>
</linearGradient>
<linearGradient id="paint9_linear_513_311" x1="68.5668" y1="41.8647" x2="43.9556" y2="41.4787" gradientUnits="userSpaceOnUse">
<stop stop-color="#00FEFF" stop-opacity="0.25"/>
<stop offset="0.541" stop-color="#2DDFFF" stop-opacity="0.122"/>
<stop offset="1" stop-color="#58C1FF" stop-opacity="0"/>
</linearGradient>
<linearGradient id="paint10_linear_513_311" x1="19.7148" y1="38.3394" x2="8.01288" y2="6.15452" gradientUnits="userSpaceOnUse">
<stop offset="0.19" stop-color="#002275" stop-opacity="0.7"/>
<stop offset="0.633" stop-color="#009DC2" stop-opacity="0.364"/>
<stop offset="0.944" stop-color="#00FEFF" stop-opacity="0.1"/>
</linearGradient>
<linearGradient id="paint11_linear_513_311" x1="27.089" y1="58.3395" x2="37.4099" y2="72.7929" gradientUnits="userSpaceOnUse">
<stop offset="0.003" stop-color="#002275" stop-opacity="0.8"/>
<stop offset="0.07" stop-color="#002479" stop-opacity="0.742"/>
<stop offset="0.947" stop-color="#003EAA" stop-opacity="0"/>
</linearGradient>
<linearGradient id="paint12_linear_513_311" x1="46.6072" y1="83.0472" x2="47.2824" y2="76.4615" gradientUnits="userSpaceOnUse">
<stop stop-color="#002275" stop-opacity="0.6"/>
<stop offset="0.245" stop-color="#002275" stop-opacity="0.341"/>
<stop offset="0.486" stop-color="#002275" stop-opacity="0.152"/>
<stop offset="0.717" stop-color="#002275" stop-opacity="0.039"/>
<stop offset="0.926" stop-color="#002275" stop-opacity="0"/>
</linearGradient>
<linearGradient id="paint13_linear_513_311" x1="70.4474" y1="-9.66982" x2="109.039" y2="76.0739" gradientUnits="userSpaceOnUse">
<stop stop-color="#00FEFF"/>
<stop offset="0.283" stop-color="#03DFFF"/>
<stop offset="0.897" stop-color="#0992FF"/>
<stop offset="1" stop-color="#0A84FF"/>
</linearGradient>
<linearGradient id="paint14_linear_513_311" x1="84.5088" y1="53.5815" x2="66.8169" y2="101.563" gradientUnits="userSpaceOnUse">
<stop stop-color="#0060DF"/>
<stop offset="0.093" stop-color="#0067E5" stop-opacity="0.806"/>
<stop offset="0.211" stop-color="#006EEC" stop-opacity="0.594"/>
<stop offset="0.333" stop-color="#0075F2" stop-opacity="0.411"/>
<stop offset="0.456" stop-color="#007AF7" stop-opacity="0.262"/>
<stop offset="0.583" stop-color="#007EFA" stop-opacity="0.147"/>
<stop offset="0.713" stop-color="#0081FD" stop-opacity="0.065"/>
<stop offset="0.848" stop-color="#0082FE" stop-opacity="0.016"/>
<stop offset="1" stop-color="#0083FF" stop-opacity="0"/>
</linearGradient>
<linearGradient id="paint15_linear_513_311" x1="78.4707" y1="-4.245" x2="91.9649" y2="108.513" gradientUnits="userSpaceOnUse">
<stop stop-color="#75FEFF"/>
<stop offset="0.283" stop-color="#5ADFFF"/>
<stop offset="0.897" stop-color="#1692FF"/>
<stop offset="1" stop-color="#0A84FF"/>
</linearGradient>
<linearGradient id="paint16_linear_513_311" x1="90.9084" y1="50.9212" x2="80.9666" y2="94.1306" gradientUnits="userSpaceOnUse">
<stop stop-color="#9EE7FF"/>
<stop offset="0.144" stop-color="#8CDBFF" stop-opacity="0.879"/>
<stop offset="0.461" stop-color="#5EBDFF" stop-opacity="0.571"/>
<stop offset="0.924" stop-color="#168CFF" stop-opacity="0.083"/>
<stop offset="1" stop-color="#0A84FF" stop-opacity="0"/>
</linearGradient>
<linearGradient id="paint17_linear_513_311" x1="80.4005" y1="-1.93693" x2="89.797" y2="68.7341" gradientUnits="userSpaceOnUse">
<stop stop-color="#00FEFF"/>
<stop offset="0.144" stop-color="#0BF7FF" stop-opacity="0.879"/>
<stop offset="0.461" stop-color="#26E4FF" stop-opacity="0.571"/>
<stop offset="0.924" stop-color="#51C6FF" stop-opacity="0.083"/>
<stop offset="1" stop-color="#58C1FF" stop-opacity="0"/>
</linearGradient>
<linearGradient id="paint18_linear_513_311" x1="81.6054" y1="2.1839" x2="130.926" y2="78.7334" gradientUnits="userSpaceOnUse">
<stop stop-color="#00FEFF"/>
<stop offset="0.144" stop-color="#01EFFF" stop-opacity="0.879"/>
<stop offset="0.461" stop-color="#04CAFF" stop-opacity="0.571"/>
<stop offset="0.924" stop-color="#098EFF" stop-opacity="0.083"/>
<stop offset="1" stop-color="#0A84FF" stop-opacity="0"/>
</linearGradient>
<linearGradient id="paint19_linear_513_311" x1="21412.3" y1="20094.9" x2="5982.19" y2="27650.3" gradientUnits="userSpaceOnUse">
<stop stop-color="#9EE7FF"/>
<stop offset="0.144" stop-color="#8CDBFF" stop-opacity="0.879"/>
<stop offset="0.461" stop-color="#5EBDFF" stop-opacity="0.571"/>
<stop offset="0.924" stop-color="#168CFF" stop-opacity="0.083"/>
<stop offset="1" stop-color="#0A84FF" stop-opacity="0"/>
</linearGradient>
<linearGradient id="paint20_linear_513_311" x1="20933.7" y1="7731.71" x2="10364.5" y2="20680.4" gradientUnits="userSpaceOnUse">
<stop stop-color="#00FEFF"/>
<stop offset="0.144" stop-color="#01EFFF" stop-opacity="0.879"/>
<stop offset="0.461" stop-color="#04CAFF" stop-opacity="0.571"/>
<stop offset="0.924" stop-color="#098EFF" stop-opacity="0.083"/>
<stop offset="1" stop-color="#0A84FF" stop-opacity="0"/>
</linearGradient>
<linearGradient id="paint21_linear_513_311" x1="2376.39" y1="2455.34" x2="1960.27" y2="4932.32" gradientUnits="userSpaceOnUse">
<stop stop-color="#00FEFF"/>
<stop offset="0.144" stop-color="#01EFFF" stop-opacity="0.879"/>
<stop offset="0.461" stop-color="#04CAFF" stop-opacity="0.571"/>
<stop offset="0.924" stop-color="#098EFF" stop-opacity="0.083"/>
<stop offset="1" stop-color="#0A84FF" stop-opacity="0"/>
</linearGradient>
<linearGradient id="paint22_linear_513_311" x1="4629.31" y1="9404.26" x2="2037.32" y2="12703.2" gradientUnits="userSpaceOnUse">
<stop stop-color="#00FEFF"/>
<stop offset="0.144" stop-color="#01EFFF" stop-opacity="0.879"/>
<stop offset="0.461" stop-color="#04CAFF" stop-opacity="0.571"/>
<stop offset="0.924" stop-color="#098EFF" stop-opacity="0.083"/>
<stop offset="1" stop-color="#0A84FF" stop-opacity="0"/>
</linearGradient>
</defs>
</svg>
