<svg width="56" height="122" viewBox="0 0 56 122" fill="none" xmlns="http://www.w3.org/2000/svg">
<g clip-path="url(#clip0_512_232)">
<path d="M42.9333 118.317L44.1052 98.7878L47.341 93.2634C47.341 93.2634 39.9763 96.2765 27.6467 96.2765C15.3169 96.2765 8.06394 93.3191 8.06394 93.3191L11.6903 99.3454L12.9732 118.317C12.9732 120.351 19.6799 122 27.9534 122C36.2264 122 42.9333 120.351 42.9333 118.317ZM39.2367 27.1169L41.6964 17.3931L55.3177 3.05827L51.7276 0L37.3067 15.2702L34.4508 26.8875C32.3014 26.8155 30.1509 26.7797 28.0002 26.7802C12.8123 26.7802 0.5 28.5114 0.5 30.6464C0.5 32.7816 12.8123 34.5126 28.0002 34.5126C43.1879 34.5126 55.5 32.7816 55.5 30.6464C55.5 29.0742 48.8225 27.7209 39.2367 27.1169Z" fill="#D34A47"/>
<path d="M38.246 31.9127C38.246 31.9127 37.6799 31.9948 36.0147 31.9994C34.349 32.0038 33.1664 31.9924 32.6953 31.715C32.5686 31.6405 32.4993 31.4926 32.5 31.3924C32.5014 31.2018 32.7107 31.0895 32.9773 31.0191L33.2295 31.2749C33.1198 31.2994 33.0571 31.3283 33.0569 31.3592C33.056 31.504 34.76 31.6031 36.0633 31.5924C37.3669 31.582 38.9419 31.5126 38.9433 31.3699C38.9433 31.3267 38.8242 31.286 38.617 31.254L38.8681 31C39.2058 31.0678 39.5007 31.1988 39.5 31.4255C39.4968 31.8109 38.7382 31.8695 38.246 31.9127Z" fill="white"/>
<path d="M54.396 3.24195C54.734 2.84669 54.221 1.83568 53.2501 0.984112C52.2787 0.132974 51.2172 -0.236823 50.8785 0.158433C50.5402 0.553689 51.0535 1.5647 52.0249 2.41584C52.9958 3.26719 54.0577 3.63742 54.396 3.24195ZM41.5507 70.7032C41.232 67.5998 48.2569 63.1053 46.4541 62.9614C42.573 63.186 40.6414 67.5651 38.6887 72.1515C37.9731 73.8325 35.5246 81.0001 33.9187 80.1177C32.3132 79.2357 36.0002 73.3416 37.0335 69.8413C35.8411 70.7263 31.4683 74.1651 30.3413 70.9446C28.5295 72.5021 24.658 73.3459 25.0948 69.2546C24.1309 70.9828 21.9676 73.3956 19.3709 72.393C15.9609 71.0767 21.3469 60.0818 22.6861 60.6365C24.0256 61.1909 22.4159 63.6956 21.9942 64.6682C21.067 66.8087 19.9959 69.4995 20.7115 70.0503C21.9373 70.994 25.2732 66.4803 25.3474 66.3811C25.9713 65.5467 27.7488 60.0885 29.1814 60.7152C30.614 61.342 25.608 68.5487 27.4797 69.9789C27.8572 70.2676 29.4018 69.8009 30.3413 68.772C30.9493 68.1064 30.7402 66.6322 32.7666 61.7407C34.7931 56.8494 36.5991 50.7579 37.9889 51.222C39.3786 51.6858 38.2332 54.8123 37.7346 55.9778C35.395 61.4479 31.3493 70.4851 33.2573 69.8009C35.1652 69.117 36.1587 69.0769 38.027 66.8639C39.8953 64.6509 39.8092 61.0058 41.0545 61.0833C42.3001 61.161 42.091 62.3297 41.789 63.2197C43.0146 61.8 47.5987 58.8101 48.7054 61.7713C50.0163 65.2771 42.1469 70.341 44.109 70.0827C46.022 69.8309 49.1213 67.8441 50.4445 66.0376L54.0869 32.8926C54.0869 32.8926 50.4217 35.9627 27.104 35.9627C3.78598 35.9627 0.5 32.9565 0.5 32.9565L3.60096 63.2099C5.24694 58.4749 9.15554 48.8972 15.3165 49.2187C18.1191 49.365 21.8604 54.8272 18.6556 55.0123C17.2991 55.0904 17.1614 52.2858 15.5551 51.874C14.3959 51.5766 12.7821 52.5305 11.7392 53.5639C9.65923 55.6244 5.18576 63.7536 5.77684 67.8065C6.52991 72.9735 12.8212 66.011 13.8856 63.9439C14.6353 62.4878 15.1418 58.1737 16.7813 58.6263C18.4211 59.079 16.6383 63.5312 15.4498 67.4676C14.1146 71.8877 13.4127 76.5503 11.7392 76.0139C10.0655 75.478 12.7917 69.7718 12.693 68.772C11.12 70.2411 8.22193 73.9602 4.51433 72.1194L6.44017 90.9065C6.44017 90.9065 11.5586 95 26.9776 95C42.3965 95 47.7044 90.9704 47.7044 90.9704L50.0958 69.2104C48.1393 71.1388 41.9471 74.5632 41.5507 70.7032Z" fill="#D34A47"/>
</g>
<defs>
<clipPath id="clip0_512_232">
<rect width="55" height="122" fill="white" transform="translate(0.5)"/>
</clipPath>
</defs>
</svg>
