<svg width="20" height="19" viewBox="0 0 20 19" fill="none" xmlns="http://www.w3.org/2000/svg">
<path d="M8.82099 12.9167L11.1914 13.75C11.1914 13.75 17.1173 12.5 17.9074 12.5C18.6975 12.5 18.6975 13.3333 17.9074 14.1667C17.1173 15 14.3519 17.5 11.9815 17.5C9.61111 17.5 8.03086 16.25 6.45062 16.25H2.5" stroke="white" stroke-width="2" stroke-linecap="round" stroke-linejoin="round"/>
<path d="M1.5 10.7727C2.29032 9.86364 3.87097 8.5 5.45161 8.5C7.03226 8.5 10.7863 10.3182 11.379 11.2273C11.9718 12.1364 10.1935 13.5 10.1935 13.5" stroke="white" stroke-width="2" stroke-linecap="round" stroke-linejoin="round"/>
<path d="M15.375 4.5H11.625C11.0037 4.5 10.5 5.17157 10.5 6C10.5 6.82843 11.0037 7.5 11.625 7.5H15.375C15.9963 7.5 16.5 6.82843 16.5 6C16.5 5.17157 15.9963 4.5 15.375 4.5Z" stroke="white" stroke-width="2"/>
<path d="M10.5 1.5H16.5" stroke="white" stroke-width="2" stroke-linecap="round"/>
</svg>
