<svg width="122" height="119" viewBox="0 0 122 119" fill="none" xmlns="http://www.w3.org/2000/svg">
<path d="M53.5275 53.0414C53.0192 51.465 52.5617 49.9393 52.0533 48.3628C51.545 46.7863 51.0875 45.3115 50.6808 43.8368C50.2742 42.4128 49.9183 41.0906 49.5625 39.8701H49.4608C49.0033 42.0568 48.4442 44.2436 47.7325 46.4303C46.97 48.8714 46.2075 51.4141 45.3942 53.9568C44.6825 56.5504 43.92 58.9406 43.1575 61.0765H56.0692C55.7642 60.0035 55.3575 58.7372 54.9 57.4099C54.4425 56.0419 53.985 54.5671 53.5275 53.0414ZM100.396 0H21.6042C9.65833 0 0 9.66239 0 21.6132V97.3867C0 109.338 9.65833 119 21.6042 119H100.396C112.342 119 122 109.338 122 97.3867V21.6132C122 9.66239 112.342 0 100.396 0ZM74.725 84.0628H64.0958C63.745 84.1137 63.3892 83.8594 63.2875 83.5034L59.1192 71.4H40.2092L36.3458 83.3509C36.2442 83.8085 35.8375 84.1137 35.38 84.0679H25.8233C25.2642 84.0679 25.1117 83.7577 25.2642 83.1525L41.6325 36.0051C41.785 35.4966 41.9375 34.9372 42.1408 34.3269C42.3442 33.259 42.4458 32.1402 42.4458 31.0214C42.395 30.7671 42.5983 30.5128 42.8525 30.462H56.0183C56.425 30.462 56.6283 30.6145 56.6792 30.8688L75.2333 83.2491C75.3858 83.8035 75.2333 84.0628 74.725 84.0628ZM92.0083 83.3C92.0083 83.8594 91.8101 84.1137 91.3526 84.1137H81.3842C80.8758 84.1137 80.6217 83.8035 80.6217 83.3V44.1419C80.6217 43.6333 80.8301 43.4299 81.2876 43.4299H91.3526C91.8101 43.4299 92.0083 43.6842 92.0083 44.1419V83.3ZM90.9459 37.3782C90.3456 37.9882 89.6217 38.4626 88.823 38.7696C88.0243 39.0765 87.1691 39.209 86.315 39.1581C84.6375 39.209 83.0108 38.5479 81.7858 37.3782C80.6211 36.1042 80.0008 34.4251 80.0574 32.6996C80.0066 30.9705 80.6674 29.3432 81.8823 28.1735C83.1125 27.0038 84.7392 26.3936 86.4167 26.3936C88.4043 26.3936 89.9191 27.0038 91.0425 28.1735C92.1608 29.394 92.7708 31.0214 92.72 32.6996C92.7708 34.4286 92.1608 36.1068 90.9459 37.3782Z" fill="#260000"/>
</svg>
