<svg width="33" height="33" viewBox="0 0 33 33" fill="none" xmlns="http://www.w3.org/2000/svg">
<path d="M16.4957 11.1644C13.5578 11.1644 11.1602 13.562 11.1602 16.5C11.1602 19.438 13.5578 21.8356 16.4957 21.8356C19.4336 21.8356 21.8312 19.438 21.8312 16.5C21.8312 13.562 19.4336 11.1644 16.4957 11.1644ZM32.4982 16.5C32.4982 14.2905 32.5182 12.101 32.3941 9.89554C32.2701 7.33381 31.6857 5.06027 29.8125 3.18701C27.9352 1.30974 25.6657 0.729345 23.104 0.605261C20.8946 0.481177 18.7052 0.501191 16.4997 0.501191C14.2902 0.501191 12.1008 0.481177 9.89536 0.605261C7.33368 0.729345 5.06019 1.31374 3.18696 3.18701C1.30972 5.06427 0.72934 7.33381 0.605259 9.89554C0.481177 12.105 0.501191 14.2945 0.501191 16.5C0.501191 18.7055 0.481177 20.899 0.605259 23.1045C0.72934 25.6662 1.31372 27.9397 3.18696 29.813C5.06419 31.6903 7.33368 32.2707 9.89536 32.3947C12.1048 32.5188 14.2943 32.4988 16.4997 32.4988C18.7092 32.4988 20.8986 32.5188 23.104 32.3947C25.6657 32.2707 27.9392 31.6863 29.8125 29.813C31.6897 27.9357 32.2701 25.6662 32.3941 23.1045C32.5222 20.899 32.4982 18.7095 32.4982 16.5V16.5ZM16.4957 24.7095C11.9527 24.7095 8.28631 21.0431 8.28631 16.5C8.28631 11.9569 11.9527 8.29045 16.4957 8.29045C21.0387 8.29045 24.7051 11.9569 24.7051 16.5C24.7051 21.0431 21.0387 24.7095 16.4957 24.7095ZM25.0413 9.87152C23.9806 9.87152 23.1241 9.01494 23.1241 7.95423C23.1241 6.89351 23.9806 6.03693 25.0413 6.03693C26.102 6.03693 26.9586 6.89351 26.9586 7.95423C26.9589 8.2061 26.9095 8.45556 26.8133 8.68832C26.717 8.92108 26.5758 9.13256 26.3977 9.31066C26.2196 9.48876 26.0081 9.62998 25.7754 9.72622C25.5426 9.82246 25.2932 9.87184 25.0413 9.87152V9.87152Z" fill="#F46363"/>
</svg>
