<svg width="27" height="22" viewBox="0 0 27 22" fill="none" xmlns="http://www.w3.org/2000/svg">
<path d="M25.5714 0.5H1.42857C0.914955 0.5 0.5 0.926562 0.5 1.45455V20.5455C0.5 21.0734 0.914955 21.5 1.42857 21.5H25.5714C26.085 21.5 26.5 21.0734 26.5 20.5455V1.45455C26.5 0.926562 26.085 0.5 25.5714 0.5ZM24.4107 3.80511V19.3523H2.58929V3.80511L1.78839 3.16378L2.92879 1.65739L4.17076 2.65071H22.8321L24.0741 1.65739L25.2145 3.16378L24.4107 3.80511ZM22.8321 2.64773L13.5 10.1051L4.16786 2.64773L2.92589 1.6544L1.78549 3.1608L2.58638 3.80213L12.4989 11.7249C12.784 11.9525 13.1347 12.0761 13.4956 12.0761C13.8566 12.0761 14.2073 11.9525 14.4924 11.7249L24.4107 3.80511L25.2116 3.16378L24.0712 1.65739L22.8321 2.64773Z" fill="#F46363"/>
</svg>
