<svg width="16" height="17" viewBox="0 0 16 17" fill="none" xmlns="http://www.w3.org/2000/svg">
<path d="M6.52403 16.3684C8.02267 15.7461 7.69432 14.0301 6.93658 12.9453C6.18725 11.8339 5.15168 11.0693 4.10768 10.3313C3.36278 9.8355 2.69768 9.21718 2.13755 8.49972C1.90181 8.20631 1.42191 7.66395 1.91023 7.55725C2.40697 7.45056 3.26574 7.96625 3.70355 8.16186C4.46971 8.49972 5.22745 8.89094 5.93467 9.35328L6.78503 7.84177C5.47161 6.92598 3.78774 6.11688 2.22174 5.87682C1.32929 5.73456 0.386327 5.93017 0.0832306 6.95265C-0.186188 7.83288 0.243198 8.722 0.73152 9.41552C1.88497 11.0426 3.67829 11.825 5.01697 13.2298C5.30322 13.5233 5.64842 13.87 5.8168 14.279C5.99361 14.6702 5.95151 14.6969 5.5558 14.6969C4.51181 14.6969 3.20681 13.8344 2.35645 13.2654L1.5061 14.7769C2.79426 15.6127 4.94961 16.9197 6.52403 16.3684ZM15.8611 2.49816C16.0463 2.30256 16.0463 1.98247 15.8611 1.79576L14.7666 0.639901C14.6784 0.550148 14.5607 0.5 14.4382 0.5C14.3157 0.5 14.198 0.550148 14.1099 0.639901L13.2511 1.5468L15.0023 3.39617L15.8611 2.49816ZM7.57645 7.53947V9.38884H9.32767L14.5056 3.92075L12.7543 2.07138L7.57645 7.53947Z" fill="white"/>
</svg>
