<svg width="34" height="34" viewBox="0 0 34 34" fill="none" xmlns="http://www.w3.org/2000/svg">
<path fill-rule="evenodd" clip-rule="evenodd" d="M33.5 17C33.5 26.1121 26.1121 33.5 17 33.5C7.88788 33.5 0.5 26.1121 0.5 17C0.5 7.88788 7.88788 0.5 17 0.5C26.1121 0.5 33.5 7.88788 33.5 17ZM17.5913 12.6811C15.9866 13.348 12.7788 14.7299 7.969 16.8254C7.188 17.1361 6.77825 17.44 6.74113 17.737C6.67788 18.2402 7.30762 18.4382 8.16288 18.7064C8.27975 18.7435 8.40075 18.7806 8.5245 18.8219C9.36738 19.0955 10.5004 19.4159 11.0889 19.4282C11.6238 19.4392 12.2205 19.2192 12.8791 18.7682C17.3726 15.7336 19.6922 14.2005 19.838 14.1675C19.9411 14.1441 20.0841 14.1139 20.1804 14.2005C20.2766 14.2857 20.267 14.448 20.2574 14.492C20.1941 14.7574 17.7274 17.0522 16.4486 18.2402C16.0499 18.6101 15.768 18.8727 15.7103 18.9333C15.581 19.0666 15.449 19.1945 15.3225 19.3169C14.5387 20.0704 13.953 20.6369 15.3555 21.5609C16.0293 22.005 16.5682 22.3721 17.1059 22.7379C17.693 23.138 18.2788 23.5367 19.0378 24.0345C19.2303 24.161 19.4145 24.2916 19.5946 24.4195C20.278 24.9076 20.8926 25.3449 21.6516 25.2761C22.0916 25.2349 22.5481 24.821 22.7791 23.5849C23.325 20.6616 24.4002 14.3311 24.6491 11.7214C24.6643 11.5047 24.655 11.287 24.6216 11.0724C24.6016 10.899 24.5172 10.7395 24.3851 10.6255C24.1885 10.4646 23.8832 10.4303 23.7458 10.433C23.1256 10.444 22.1741 10.7754 17.5913 12.6811Z" fill="#F46363"/>
</svg>
