<svg width="122" height="122" viewBox="0 0 122 122" fill="none" xmlns="http://www.w3.org/2000/svg">
<path d="M111.217 19.2955L89.1847 8.66218C87.9405 8.06079 86.5404 7.86233 85.1786 8.09431C83.8168 8.3263 82.5608 8.97723 81.5846 9.95688L9.46145 75.8714C8.58639 76.6674 8.06258 77.7792 8.00525 78.9624C7.94792 80.1455 8.36178 81.303 9.15577 82.1802C9.25129 82.2836 9.34682 82.3832 9.44999 82.4751L15.3383 87.8378C16.1077 88.5398 17.0981 88.9494 18.1375 88.9956C19.1769 89.0418 20.1995 88.7216 21.0279 88.0906L107.9 22.0535C108.557 21.5543 109.339 21.2487 110.159 21.171C110.979 21.0933 111.804 21.2466 112.542 21.6136C113.28 21.9807 113.901 22.5469 114.335 23.2485C114.769 23.9502 115 24.7594 115 25.5852V25.3285C115 24.0679 114.645 22.8329 113.976 21.7657C113.306 20.6984 112.35 19.8422 111.217 19.2955V19.2955Z" fill="#0065A9"/>
<path d="M111.217 102.704L89.1847 113.34C87.9401 113.94 86.5405 114.137 85.1791 113.906C83.8177 113.674 82.5617 113.024 81.5846 112.046L9.46145 46.1323C8.58639 45.3364 8.06258 44.2247 8.00525 43.0417C7.94792 41.8586 8.36178 40.7012 9.15577 39.8241C9.25129 39.7206 9.34682 39.6211 9.44999 39.5291L15.3383 34.1669C16.1085 33.462 17.1012 33.0506 18.1431 33.0044C19.185 32.9582 20.2101 33.2801 21.0394 33.9141L107.9 99.9462C108.557 100.445 109.339 100.751 110.159 100.829C110.979 100.906 111.804 100.753 112.542 100.386C113.28 100.019 113.901 99.4528 114.335 98.7512C114.769 98.0496 115 97.2404 115 96.4148V96.6905C114.996 97.9477 114.639 99.1783 113.97 100.242C113.301 101.305 112.347 102.158 111.217 102.704V102.704Z" fill="#007ACC"/>
<path d="M89.5173 113.344C88.2887 113.94 86.9071 114.137 85.5633 113.906C84.2194 113.676 82.9796 113.03 82.0151 112.057C82.5567 112.597 83.2441 112.963 83.9911 113.11C84.7381 113.257 85.5114 113.178 86.2142 112.884C86.917 112.589 87.518 112.091 87.9419 111.453C88.3657 110.815 88.5936 110.065 88.597 109.297V12.703C88.5976 11.9311 88.3713 11.1764 87.9467 10.5345C87.5221 9.89263 86.9183 9.39238 86.2119 9.09716C85.5054 8.80194 84.728 8.72503 83.9782 8.87618C83.2285 9.02733 82.54 9.39974 82 9.94623C82.9638 8.97275 84.2034 8.32565 85.5474 8.09441C86.8914 7.86316 88.2734 8.0592 89.5022 8.65542L111.247 19.2103C112.369 19.751 113.317 20.601 113.981 21.6621C114.645 22.7233 114.998 23.9523 115 25.2075V96.7921C115 98.0463 114.65 99.275 113.988 100.337C113.327 101.398 112.382 102.25 111.262 102.793L89.5173 113.344Z" fill="#1F9CF0"/>
</svg>
