<svg width="33" height="33" viewBox="0 0 33 33" fill="none" xmlns="http://www.w3.org/2000/svg">
<path d="M16.5 6.98571C11.3071 6.98571 7.08571 11.2071 7.07857 16.4C7.07857 18.1786 7.57857 19.9143 8.52143 21.4071L8.74286 21.7643L7.79286 25.2357L11.3571 24.3L11.7 24.5071C13.1429 25.3643 14.8 25.8214 16.4929 25.8214H16.5C21.6857 25.8214 26.0214 21.6 26.0214 16.4071C26.0214 13.8929 24.9357 11.5286 23.1571 9.75C21.3714 7.96429 19.0143 6.98571 16.5 6.98571ZM22.0357 20.4429C21.8 21.1071 20.6714 21.7071 20.1286 21.7857C19.2286 21.9214 18.5286 21.85 16.7357 21.0786C13.9 19.85 12.0429 16.9929 11.9 16.8071C11.7571 16.6214 10.7429 15.2714 10.7429 13.8786C10.7429 12.4857 11.4714 11.8 11.7357 11.5143C11.9929 11.2286 12.3 11.1571 12.4929 11.1571C12.6786 11.1571 12.8714 11.1571 13.0357 11.1643C13.2071 11.1714 13.4429 11.1 13.6714 11.65C13.9071 12.2143 14.4714 13.6071 14.5429 13.75C14.6143 13.8929 14.6643 14.0571 14.5643 14.2429C14.0214 15.3286 13.4429 15.2857 13.7357 15.7857C14.8286 17.6643 15.9214 18.3143 17.5857 19.15C17.8714 19.2929 18.0357 19.2714 18.2 19.0786C18.3643 18.8929 18.9071 18.25 19.0929 17.9714C19.2786 17.6857 19.4714 17.7357 19.7286 17.8286C19.9857 17.9214 21.3786 18.6071 21.6643 18.75C21.95 18.8929 22.1357 18.9643 22.2071 19.0786C22.2714 19.2143 22.2714 19.7857 22.0357 20.4429ZM29.0714 0.5H3.92857C2.03571 0.5 0.5 2.03571 0.5 3.92857V29.0714C0.5 30.9643 2.03571 32.5 3.92857 32.5H29.0714C30.9643 32.5 32.5 30.9643 32.5 29.0714V3.92857C32.5 2.03571 30.9643 0.5 29.0714 0.5ZM16.4929 27.7286C14.5929 27.7286 12.7286 27.25 11.0786 26.35L5.07143 27.9286L6.67857 22.0571C5.68571 20.3429 5.16429 18.3929 5.16429 16.3929C5.17143 10.15 10.25 5.07143 16.4929 5.07143C19.5214 5.07143 22.3643 6.25 24.5071 8.39286C26.6429 10.5357 27.9286 13.3786 27.9286 16.4071C27.9286 22.65 22.7357 27.7286 16.4929 27.7286Z" fill="#F46363"/>
</svg>
