<svg width="24" height="24" viewBox="0 0 24 24" fill="none" xmlns="http://www.w3.org/2000/svg">
<path d="M18.0933 22.6667H5.90666C5.65013 22.6606 5.3973 22.6041 5.16262 22.5003C4.92794 22.3965 4.71602 22.2474 4.53895 22.0617C4.36189 21.876 4.22315 21.6572 4.13068 21.4178C4.0382 21.1784 3.9938 20.9232 4 20.6667V7.48666H5.33333V20.6667C5.32697 20.7481 5.33677 20.8301 5.36218 20.9077C5.38758 20.9854 5.42809 21.0573 5.48137 21.1192C5.53466 21.1812 5.59966 21.232 5.67265 21.2687C5.74563 21.3055 5.82516 21.3274 5.90666 21.3333H18.0933C18.1748 21.3274 18.2544 21.3055 18.3274 21.2687C18.4003 21.232 18.4653 21.1812 18.5186 21.1192C18.5719 21.0573 18.6124 20.9854 18.6378 20.9077C18.6632 20.8301 18.673 20.7481 18.6667 20.6667V7.48666H20V20.6667C20.0062 20.9232 19.9618 21.1784 19.8693 21.4178C19.7768 21.6572 19.6381 21.876 19.461 22.0617C19.284 22.2474 19.0721 22.3965 18.8374 22.5003C18.6027 22.6041 18.3499 22.6606 18.0933 22.6667Z" fill="#9AC355"/>
<path d="M20.52 5.99999H3.33333C3.15652 5.99999 2.98695 5.92975 2.86193 5.80473C2.7369 5.6797 2.66666 5.51013 2.66666 5.33332C2.66666 5.15651 2.7369 4.98694 2.86193 4.86192C2.98695 4.73689 3.15652 4.66666 3.33333 4.66666H20.52C20.6968 4.66666 20.8664 4.73689 20.9914 4.86192C21.1164 4.98694 21.1867 5.15651 21.1867 5.33332C21.1867 5.51013 21.1164 5.6797 20.9914 5.80473C20.8664 5.92975 20.6968 5.99999 20.52 5.99999Z" fill="#9AC355"/>
<path d="M14 8.66666H15.3333V18.6667H14V8.66666Z" fill="#9AC355"/>
<path d="M8.66666 8.66666H10V18.6667H8.66666V8.66666Z" fill="#9AC355"/>
<path d="M15.3333 3.90668H14.0667V2.66668H9.93333V3.90668H8.66667V2.66668C8.66624 2.32431 8.79752 1.99489 9.03333 1.74668C9.26914 1.49846 9.59139 1.35046 9.93333 1.33334H14.0667C14.4086 1.35046 14.7309 1.49846 14.9667 1.74668C15.2025 1.99489 15.3338 2.32431 15.3333 2.66668V3.90668Z" fill="#9AC355"/>
</svg>
